<?xml version="1.0" encoding="UTF-8" standalone="no"?><svg xmlns="http://www.w3.org/2000/svg" xmlns:xlink="http://www.w3.org/1999/xlink" clip-rule="evenodd" stroke-miterlimit="10" viewBox="0 0 1024 768"><desc>SVG generated by Keynote</desc><defs></defs><g transform="matrix(1.00, 0.00, -0.00, -1.00, 0.0, 768.0)"><path d="M 0.0 768.0 L 1024.0 768.0 L 1024.0 0.0 L 0.0 0.0 Z M 0.0 768.0 " fill="#FEFFFF"></path><text xml:space="preserve" font-family=".LucidaGrandeUI,.Lucida Grande UI" font-size="64.0" fill="#000000" transform="matrix(1.00, 0.00, -0.00, -1.00, 360.2, 680.5)">D</text><text xml:space="preserve" font-family=".LucidaGrandeUI,.Lucida Grande UI" font-size="64.0" fill="#000000" transform="matrix(1.00, 0.00, -0.00, -1.00, 408.1, 680.5)">i</text><text xml:space="preserve" font-family=".LucidaGrandeUI,.Lucida Grande UI" font-size="64.0" fill="#000000" transform="matrix(1.00, 0.00, -0.00, -1.00, 426.6, 680.5)">r</text><text xml:space="preserve" font-family=".LucidaGrandeUI,.Lucida Grande UI" font-size="64.0" fill="#000000" transform="matrix(1.00, 0.00, -0.00, -1.00, 452.8, 680.5)">e</text><text xml:space="preserve" font-family=".LucidaGrandeUI,.Lucida Grande UI" font-size="64.0" fill="#000000" transform="matrix(1.00, 0.00, -0.00, -1.00, 488.5, 680.5)">c</text><text xml:space="preserve" font-family=".LucidaGrandeUI,.Lucida Grande UI" font-size="64.0" fill="#000000" transform="matrix(1.00, 0.00, -0.00, -1.00, 521.3, 680.5)">t</text><text xml:space="preserve" font-family=".LucidaGrandeUI,.Lucida Grande UI" font-size="64.0" fill="#000000" transform="matrix(1.00, 0.00, -0.00, -1.00, 545.2, 680.5)">i</text><text xml:space="preserve" font-family=".LucidaGrandeUI,.Lucida Grande UI" font-size="64.0" fill="#000000" transform="matrix(1.00, 0.00, -0.00, -1.00, 563.7, 680.5)">v</text><text xml:space="preserve" font-family=".LucidaGrandeUI,.Lucida Grande UI" font-size="64.0" fill="#000000" transform="matrix(1.00, 0.00, -0.00, -1.00, 596.6, 680.5)">e</text><text xml:space="preserve" font-family=".LucidaGrandeUI,.Lucida Grande UI" font-size="64.0" fill="#000000" transform="matrix(1.00, 0.00, -0.00, -1.00, 632.3, 680.5)">s</text><image xlink:href="../../A520F316-A441-44BD-B68C-73538409F169/assets/BBBAFA8196D311F442D85F9745E32262.png" width="1024.00" height="791.00" transform="matrix(0.20, 0.00, -0.00, -0.20, 9.0, 804.0)"></image><g><clipPath id="clip0x6100008be900"><path d="M 221.0 155.0 L 803.0 155.0 L 803.0 642.0 L 221.0 642.0 Z M 221.0 155.0 "></path></clipPath><g clip-path="url(#clip0x6100008be900)"><g><g><clipPath id="clip0x6100008be720"><path d="M 221.0 642.0 L 803.0 642.0 L 803.0 155.0 L 221.0 155.0 Z M 221.0 642.0 "></path></clipPath><g clip-path="url(#clip0x6100008be720)"><g><clipPath id="clip0x6100008be540"><path d="M 221.0 155.0 L 803.0 155.0 L 803.0 642.0 L 221.0 642.0 Z M 221.0 155.0 "></path></clipPath><g clip-path="url(#clip0x6100008be540)"><g opacity="0.20"><g><clipPath id="clip0x6100008be3c0"><path d="M 710.0 312.8 L 723.9 312.8 L 723.9 327.8 L 710.0 327.8 Z M 710.0 312.8 "></path></clipPath><g clip-path="url(#clip0x6100008be3c0)"><path d="M 710.0 327.8 L 716.9 322.0 L 723.9 327.8 L 716.9 312.8 Z M 710.0 327.8 " fill="#424243"></path></g></g></g></g></g></g></g><g><clipPath id="clip0x6100008beba0"><path d="M 221.0 642.0 L 803.0 642.0 L 803.0 155.0 L 221.0 155.0 Z M 221.0 642.0 "></path></clipPath><g clip-path="url(#clip0x6100008beba0)"><g><clipPath id="clip0x6100008bed20"><path d="M 221.0 155.0 L 803.0 155.0 L 803.0 642.0 L 221.0 642.0 Z M 221.0 155.0 "></path></clipPath><g clip-path="url(#clip0x6100008bed20)"><g opacity="0.20"><g><clipPath id="clip0x6100008bef00"><path d="M 647.4 188.0 L 786.4 188.0 L 786.4 247.9 L 647.4 247.9 Z M 647.4 188.0 "></path></clipPath><g clip-path="url(#clip0x6100008bef00)"><path d="M 786.3 247.7 C 785.9 245.6 784.5 243.6 782.0 242.0 L 727.7 206.8 C 721.8 203.0 712.1 203.0 706.2 206.8 L 651.9 242.0 C 649.4 243.7 647.9 245.7 647.5 247.9 L 647.5 234.1 C 647.0 231.3 648.5 228.3 651.9 226.1 L 706.2 190.9 C 712.1 187.0 721.8 187.0 727.7 190.9 L 782.0 226.1 C 785.5 228.3 786.9 231.4 786.3 234.3 Z M 786.3 247.7 " fill="#424243"></path></g></g></g></g></g></g></g><g><clipPath id="clip0x6100008bf0e0"><path d="M 221.0 642.0 L 803.0 642.0 L 803.0 155.0 L 221.0 155.0 Z M 221.0 642.0 "></path></clipPath><g clip-path="url(#clip0x6100008bf0e0)"><g><clipPath id="clip0x6100008bf260"><path d="M 221.0 155.0 L 803.0 155.0 L 803.0 642.0 L 221.0 642.0 Z M 221.0 155.0 "></path></clipPath><g clip-path="url(#clip0x6100008bf260)"><g opacity="0.20"><g><clipPath id="clip0x6100008bf440"><path d="M 647.4 167.6 L 786.4 167.6 L 786.4 227.5 L 647.4 227.5 Z M 647.4 167.6 "></path></clipPath><g clip-path="url(#clip0x6100008bf440)"><path d="M 786.3 227.4 C 785.9 225.3 784.5 223.3 782.0 221.7 L 727.7 186.5 C 721.8 182.7 712.1 182.7 706.2 186.5 L 651.9 221.7 C 649.4 223.3 647.9 225.4 647.5 227.5 L 647.5 213.8 C 647.0 210.9 648.5 207.9 651.9 205.7 L 706.2 170.5 C 712.1 166.7 721.8 166.7 727.7 170.5 L 782.0 205.7 C 785.5 208.0 786.9 211.0 786.3 214.0 Z M 786.3 227.4 " fill="#424243"></path></g></g></g></g></g></g></g><g><clipPath id="clip0x6100008bf620"><path d="M 221.0 642.0 L 803.0 642.0 L 803.0 155.0 L 221.0 155.0 Z M 221.0 642.0 "></path></clipPath><g clip-path="url(#clip0x6100008bf620)"><g><clipPath id="clip0x6100008bf7a0"><path d="M 221.0 155.0 L 803.0 155.0 L 803.0 642.0 L 221.0 642.0 Z M 221.0 155.0 "></path></clipPath><g clip-path="url(#clip0x6100008bf7a0)"><g opacity="0.20"><g><clipPath id="clip0x6100008bf980"><path d="M 647.6 207.8 L 786.3 207.8 L 786.3 312.7 L 647.6 312.7 Z M 647.6 207.8 "></path></clipPath><g clip-path="url(#clip0x6100008bf980)"><path d="M 757.8 263.7 L 723.7 241.7 C 720.0 239.3 713.9 239.3 710.2 241.7 L 676.1 263.7 C 672.3 266.1 672.3 269.9 676.1 272.3 L 710.2 294.3 C 713.9 296.7 720.0 296.7 723.7 294.3 L 757.8 272.3 C 761.5 269.9 761.5 266.1 757.8 263.7 M 786.2 266.9 C 786.8 269.8 785.4 272.8 781.9 275.0 L 727.7 309.9 C 721.8 313.7 712.1 313.7 706.2 309.9 L 652.0 275.0 C 648.6 272.8 647.2 269.9 647.7 267.0 L 647.7 253.4 C 647.2 250.6 648.6 247.6 652.0 245.4 L 706.2 210.6 C 712.1 206.8 721.7 206.8 727.7 210.6 L 781.9 245.4 C 785.4 247.7 786.8 250.7 786.2 253.6 Z M 786.2 266.9 " fill="#424243"></path></g></g></g><path d="M 379.7 247.7 C 379.3 245.6 377.8 243.6 375.4 242.0 L 321.1 206.8 C 315.1 203.0 305.5 203.0 299.6 206.8 L 245.2 242.0 C 242.7 243.7 241.3 245.7 240.9 247.9 L 240.9 234.1 C 240.4 231.3 241.8 228.3 245.2 226.1 L 299.6 190.9 C 305.5 187.0 315.1 187.0 321.1 190.9 L 375.4 226.1 C 378.8 228.3 380.3 231.4 379.7 234.3 Z M 379.7 247.7 " fill="#424243"></path><path d="M 379.7 227.4 C 379.3 225.3 377.8 223.3 375.4 221.7 L 321.1 186.5 C 315.1 182.7 305.5 182.7 299.6 186.5 L 245.2 221.7 C 242.7 223.3 241.3 225.4 240.9 227.5 L 240.9 213.8 C 240.4 210.9 241.8 207.9 245.2 205.7 L 299.6 170.5 C 305.5 166.7 315.1 166.7 321.1 170.5 L 375.4 205.7 C 378.8 208.0 380.3 211.0 379.7 214.0 Z M 379.7 227.4 " fill="#424243"></path><path d="M 351.2 263.7 L 317.1 241.7 C 313.3 239.3 307.3 239.3 303.6 241.7 L 269.4 263.7 C 265.7 266.1 265.7 269.9 269.4 272.3 L 303.6 294.3 C 307.3 296.7 313.3 296.7 317.1 294.3 L 351.2 272.3 C 354.9 269.9 354.9 266.1 351.2 263.7 M 379.6 266.9 C 380.1 269.8 378.7 272.8 375.3 275.0 L 321.0 309.9 C 315.1 313.7 305.5 313.7 299.6 309.9 L 245.4 275.0 C 242.0 272.8 240.5 269.9 241.0 267.0 L 241.0 253.4 C 240.5 250.6 242.0 247.6 245.4 245.4 L 299.6 210.6 C 305.5 206.8 315.1 206.8 321.0 210.6 L 375.3 245.4 C 378.7 247.7 380.1 250.7 379.6 253.6 Z M 379.6 266.9 " fill="#424243"></path><path d="M 368.0 273.7 L 319.8 304.7 C 314.6 308.1 306.0 308.1 300.8 304.7 L 252.6 273.7 C 247.3 270.3 247.3 264.9 252.6 261.5 L 300.8 230.5 C 306.0 227.1 314.6 227.1 319.8 230.5 L 368.0 261.5 C 373.3 264.9 373.3 270.3 368.0 273.7 " fill="#9F4D9D"></path></g></g></g></g><g><clipPath id="clip0x6100008bfce0"><path d="M 221.0 642.0 L 803.0 642.0 L 803.0 155.0 L 221.0 155.0 Z M 221.0 642.0 "></path></clipPath><g clip-path="url(#clip0x6100008bfce0)"><g><clipPath id="clip0x6100008bfe60"><path d="M 221.0 155.0 L 803.0 155.0 L 803.0 642.0 L 221.0 642.0 Z M 221.0 155.0 "></path></clipPath><g clip-path="url(#clip0x6100008bfe60)"><g opacity="0.81"><g><clipPath id="clip0x610000aa0060"><path d="M 261.2 246.2 L 361.6 246.2 L 361.6 284.6 L 261.2 284.6 Z M 261.2 246.2 "></path></clipPath><g clip-path="url(#clip0x610000aa0060)"><image xlink:href="../../1C2067A6-B67F-4A27-B58A-691043038FB8/assets/96C2C2E50881DC9CE43FBBA34736B9F2.png" width="418.00" height="160.00" transform="matrix(0.24, 0.00, -0.00, -0.24, 261.2, 284.6)"></image></g></g></g></g></g></g></g><g><clipPath id="clip0x600000aa2280"><path d="M 221.0 155.0 L 803.0 155.0 L 803.0 642.0 L 221.0 642.0 Z M 221.0 155.0 "></path></clipPath><g clip-path="url(#clip0x600000aa2280)"><text xml:space="preserve" font-family="PTSans-Regular,PT Sans" font-size="24.0" fill="#FDFDFD" transform="matrix(1.00, 0.00, -0.00, -1.00, 267.2, 260.2)">d</text><text xml:space="preserve" font-family="PTSans-Regular,PT Sans" font-size="24.0" fill="#FDFDFD" transform="matrix(1.00, 0.00, -0.00, -1.00, 280.1, 260.2)">i</text><text xml:space="preserve" font-family="PTSans-Regular,PT Sans" font-size="24.0" fill="#FDFDFD" transform="matrix(1.00, 0.00, -0.00, -1.00, 286.5, 260.2)">r</text><text xml:space="preserve" font-family="PTSans-Regular,PT Sans" font-size="24.0" fill="#FDFDFD" transform="matrix(1.00, 0.00, -0.00, -1.00, 294.7, 260.2)">e</text><text xml:space="preserve" font-family="PTSans-Regular,PT Sans" font-size="24.0" fill="#FDFDFD" transform="matrix(1.00, 0.00, -0.00, -1.00, 306.6, 260.2)">c</text><text xml:space="preserve" font-family="PTSans-Regular,PT Sans" font-size="24.0" fill="#FDFDFD" transform="matrix(1.00, 0.00, -0.00, -1.00, 317.5, 260.2)">t</text><text xml:space="preserve" font-family="PTSans-Regular,PT Sans" font-size="24.0" fill="#FDFDFD" transform="matrix(1.00, 0.00, -0.00, -1.00, 325.6, 260.2)">i</text><text xml:space="preserve" font-family="PTSans-Regular,PT Sans" font-size="24.0" fill="#FDFDFD" transform="matrix(1.00, 0.00, -0.00, -1.00, 332.1, 260.2)">v</text><text xml:space="preserve" font-family="PTSans-Regular,PT Sans" font-size="24.0" fill="#FDFDFD" transform="matrix(1.00, 0.00, -0.00, -1.00, 343.4, 260.2)">e</text></g></g><g><clipPath id="clip0x600000aa2760"><path d="M 221.0 642.0 L 803.0 642.0 L 803.0 155.0 L 221.0 155.0 Z M 221.0 642.0 "></path></clipPath><g clip-path="url(#clip0x600000aa2760)"><g><clipPath id="clip0x600000aa28e0"><path d="M 221.0 155.0 L 803.0 155.0 L 803.0 642.0 L 221.0 642.0 Z M 221.0 155.0 "></path></clipPath><g clip-path="url(#clip0x600000aa28e0)"><g opacity="0.20"><g><clipPath id="clip0x600000aa2ac0"><path d="M 451.4 188.0 L 590.4 188.0 L 590.4 247.9 L 451.4 247.9 Z M 451.4 188.0 "></path></clipPath><g clip-path="url(#clip0x600000aa2ac0)"><path d="M 590.3 247.7 C 589.9 245.6 588.5 243.6 586.0 242.0 L 531.7 206.8 C 525.7 203.0 516.1 203.0 510.2 206.8 L 455.9 242.0 C 453.3 243.7 451.9 245.7 451.5 247.9 L 451.5 234.1 C 451.0 231.3 452.4 228.3 455.9 226.1 L 510.2 190.9 C 516.1 187.0 525.7 187.0 531.7 190.9 L 586.0 226.1 C 589.5 228.3 590.9 231.4 590.3 234.3 Z M 590.3 247.7 " fill="#424243"></path></g></g></g></g></g></g></g><g><clipPath id="clip0x6080008bcce0"><path d="M 221.0 642.0 L 803.0 642.0 L 803.0 155.0 L 221.0 155.0 Z M 221.0 642.0 "></path></clipPath><g clip-path="url(#clip0x6080008bcce0)"><g><clipPath id="clip0x6080008bcb60"><path d="M 221.0 155.0 L 803.0 155.0 L 803.0 642.0 L 221.0 642.0 Z M 221.0 155.0 "></path></clipPath><g clip-path="url(#clip0x6080008bcb60)"><g opacity="0.20"><g><clipPath id="clip0x6080008bc980"><path d="M 451.4 167.6 L 590.4 167.6 L 590.4 227.5 L 451.4 227.5 Z M 451.4 167.6 "></path></clipPath><g clip-path="url(#clip0x6080008bc980)"><path d="M 590.3 227.4 C 589.9 225.3 588.5 223.3 586.0 221.7 L 531.7 186.5 C 525.7 182.7 516.1 182.7 510.2 186.5 L 455.9 221.7 C 453.3 223.3 451.9 225.4 451.5 227.5 L 451.5 213.8 C 451.0 210.9 452.4 207.9 455.9 205.7 L 510.2 170.5 C 516.1 166.7 525.7 166.7 531.7 170.5 L 586.0 205.7 C 589.5 208.0 590.9 211.0 590.3 214.0 Z M 590.3 227.4 " fill="#424243"></path></g></g></g></g></g></g></g><g><clipPath id="clip0x6080008bc800"><path d="M 221.0 642.0 L 803.0 642.0 L 803.0 155.0 L 221.0 155.0 Z M 221.0 642.0 "></path></clipPath><g clip-path="url(#clip0x6080008bc800)"><g><clipPath id="clip0x6080008bce60"><path d="M 221.0 155.0 L 803.0 155.0 L 803.0 642.0 L 221.0 642.0 Z M 221.0 155.0 "></path></clipPath><g clip-path="url(#clip0x6080008bce60)"><g opacity="0.20"><g><clipPath id="clip0x6080008bd040"><path d="M 451.5 207.8 L 590.3 207.8 L 590.3 312.7 L 451.5 312.7 Z M 451.5 207.8 "></path></clipPath><g clip-path="url(#clip0x6080008bd040)"><path d="M 561.8 263.7 L 527.7 241.7 C 523.9 239.3 517.9 239.3 514.2 241.7 L 480.0 263.7 C 476.3 266.1 476.3 269.9 480.0 272.3 L 514.2 294.3 C 517.9 296.7 523.9 296.7 527.7 294.3 L 561.8 272.3 C 565.5 269.9 565.5 266.1 561.8 263.7 M 590.2 266.9 C 590.8 269.8 589.3 272.8 585.9 275.0 L 531.7 309.9 C 525.7 313.7 516.1 313.7 510.2 309.9 L 456.0 275.0 C 452.6 272.8 451.1 269.9 451.6 267.0 L 451.6 253.4 C 451.1 250.6 452.6 247.6 456.0 245.4 L 510.2 210.6 C 516.1 206.8 525.7 206.8 531.7 210.6 L 585.9 245.4 C 589.3 247.7 590.8 250.7 590.2 253.6 Z M 590.2 266.9 " fill="#424243"></path></g></g></g></g></g></g></g><g><clipPath id="clip0x6080008bd220"><path d="M 221.0 642.0 L 803.0 642.0 L 803.0 155.0 L 221.0 155.0 Z M 221.0 642.0 "></path></clipPath><g clip-path="url(#clip0x6080008bd220)"><g><clipPath id="clip0x6080008bd3a0"><path d="M 221.0 155.0 L 803.0 155.0 L 803.0 642.0 L 221.0 642.0 Z M 221.0 155.0 "></path></clipPath><g clip-path="url(#clip0x6080008bd3a0)"><g opacity="0.20"><g><clipPath id="clip0x6080008bd580"><path d="M 647.3 410.0 L 786.3 410.0 L 786.3 469.9 L 647.3 469.9 Z M 647.3 410.0 "></path></clipPath><g clip-path="url(#clip0x6080008bd580)"><path d="M 786.2 469.8 C 785.8 467.7 784.3 465.7 781.9 464.1 L 727.6 428.9 C 721.6 425.1 712.0 425.1 706.1 428.9 L 651.8 464.1 C 649.2 465.7 647.8 467.8 647.4 469.9 L 647.4 456.2 C 646.9 453.3 648.3 450.3 651.8 448.1 L 706.1 412.9 C 712.0 409.1 721.6 409.1 727.6 412.9 L 781.9 448.1 C 785.4 450.4 786.8 453.4 786.2 456.4 Z M 786.2 469.8 " fill="#424243"></path></g></g></g></g></g></g></g><g><clipPath id="clip0x6080008bd760"><path d="M 221.0 642.0 L 803.0 642.0 L 803.0 155.0 L 221.0 155.0 Z M 221.0 642.0 "></path></clipPath><g clip-path="url(#clip0x6080008bd760)"><g><clipPath id="clip0x6080008bd8e0"><path d="M 221.0 155.0 L 803.0 155.0 L 803.0 642.0 L 221.0 642.0 Z M 221.0 155.0 "></path></clipPath><g clip-path="url(#clip0x6080008bd8e0)"><g opacity="0.20"><g><clipPath id="clip0x6080008bdac0"><path d="M 647.3 389.7 L 786.3 389.7 L 786.3 449.6 L 647.3 449.6 Z M 647.3 389.7 "></path></clipPath><g clip-path="url(#clip0x6080008bdac0)"><path d="M 786.2 449.5 C 785.8 447.4 784.3 445.4 781.9 443.8 L 727.6 408.6 C 721.6 404.7 712.0 404.7 706.1 408.6 L 651.8 443.8 C 649.2 445.4 647.8 447.5 647.4 449.6 L 647.4 435.9 C 646.9 433.0 648.3 430.0 651.8 427.8 L 706.1 392.6 C 712.0 388.7 721.6 388.7 727.6 392.6 L 781.9 427.8 C 785.4 430.0 786.8 433.1 786.2 436.0 Z M 786.2 449.5 " fill="#424243"></path></g></g></g></g></g></g></g><g><clipPath id="clip0x6080008bdca0"><path d="M 221.0 642.0 L 803.0 642.0 L 803.0 155.0 L 221.0 155.0 Z M 221.0 642.0 "></path></clipPath><g clip-path="url(#clip0x6080008bdca0)"><g><clipPath id="clip0x6080008bde20"><path d="M 221.0 155.0 L 803.0 155.0 L 803.0 642.0 L 221.0 642.0 Z M 221.0 155.0 "></path></clipPath><g clip-path="url(#clip0x6080008bde20)"><g opacity="0.20"><g><clipPath id="clip0x6080008be000"><path d="M 647.6 429.8 L 786.3 429.8 L 786.3 534.8 L 647.6 534.8 Z M 647.6 429.8 "></path></clipPath><g clip-path="url(#clip0x6080008be000)"><path d="M 757.8 485.7 L 723.7 463.8 C 720.0 461.4 713.9 461.4 710.2 463.8 L 676.1 485.7 C 672.3 488.1 672.3 492.0 676.1 494.4 L 710.2 516.3 C 713.9 518.7 720.0 518.7 723.7 516.3 L 757.8 494.4 C 761.5 492.0 761.5 488.1 757.8 485.7 M 786.2 488.9 C 786.8 491.8 785.4 494.9 781.9 497.1 L 727.7 531.9 C 721.8 535.7 712.1 535.7 706.2 531.9 L 652.0 497.1 C 648.6 494.9 647.2 491.9 647.7 489.1 L 647.7 475.5 C 647.2 472.7 648.6 469.7 652.0 467.5 L 706.2 432.7 C 712.1 428.9 721.7 428.9 727.7 432.7 L 781.9 467.5 C 785.4 469.7 786.8 472.8 786.2 475.7 Z M 786.2 488.9 " fill="#424243"></path></g></g></g><path d="M 485.9 469.8 C 485.4 467.7 484.0 465.7 481.6 464.1 L 427.2 428.9 C 421.3 425.1 411.7 425.1 405.7 428.9 L 351.4 464.1 C 348.9 465.7 347.5 467.8 347.1 469.9 L 347.1 456.2 C 346.6 453.3 348.0 450.3 351.4 448.1 L 405.7 412.9 C 411.7 409.1 421.3 409.1 427.2 412.9 L 481.6 448.1 C 485.0 450.4 486.4 453.4 485.9 456.4 Z M 485.9 469.8 " fill="#424243"></path><path d="M 485.9 449.5 C 485.4 447.4 484.0 445.4 481.6 443.8 L 427.2 408.6 C 421.3 404.7 411.7 404.7 405.7 408.6 L 351.4 443.8 C 348.9 445.4 347.5 447.5 347.1 449.6 L 347.1 435.9 C 346.6 433.0 348.0 430.0 351.4 427.8 L 405.7 392.6 C 411.7 388.7 421.3 388.7 427.2 392.6 L 481.6 427.8 C 485.0 430.0 486.4 433.1 485.9 436.0 Z M 485.9 449.5 " fill="#424243"></path><path d="M 457.5 485.7 L 423.4 463.8 C 419.6 461.4 413.6 461.4 409.9 463.8 L 375.7 485.7 C 372.0 488.1 372.0 492.0 375.7 494.4 L 409.9 516.3 C 413.6 518.7 419.6 518.7 423.4 516.3 L 457.5 494.4 C 461.2 492.0 461.2 488.1 457.5 485.7 M 485.9 488.9 C 486.4 491.8 485.0 494.9 481.6 497.1 L 427.3 531.9 C 421.4 535.7 411.8 535.7 405.9 531.9 L 351.7 497.1 C 348.3 494.9 346.8 491.9 347.3 489.1 L 347.3 475.5 C 346.8 472.7 348.3 469.7 351.7 467.5 L 405.9 432.7 C 411.8 428.9 421.4 428.9 427.3 432.7 L 481.6 467.5 C 485.0 469.7 486.4 472.8 485.9 475.7 Z M 485.9 488.9 " fill="#424243"></path><path d="M 474.4 495.8 L 426.1 526.8 C 420.9 530.1 412.3 530.1 407.1 526.8 L 358.9 495.8 C 353.6 492.4 353.6 486.9 358.9 483.5 L 407.1 452.6 C 412.3 449.2 420.9 449.2 426.1 452.6 L 474.4 483.5 C 479.6 486.9 479.6 492.4 474.4 495.8 " fill="#3F74B9"></path></g></g></g></g><g><clipPath id="clip0x6080008be360"><path d="M 221.0 642.0 L 803.0 642.0 L 803.0 155.0 L 221.0 155.0 Z M 221.0 642.0 "></path></clipPath><g clip-path="url(#clip0x6080008be360)"><g><clipPath id="clip0x6080008be4e0"><path d="M 221.0 155.0 L 803.0 155.0 L 803.0 642.0 L 221.0 642.0 Z M 221.0 155.0 "></path></clipPath><g clip-path="url(#clip0x6080008be4e0)"><g opacity="0.81"><g><clipPath id="clip0x6080008be6c0"><path d="M 367.8 468.3 L 471.6 468.3 L 471.6 506.7 L 367.8 506.7 Z M 367.8 468.3 "></path></clipPath><g clip-path="url(#clip0x6080008be6c0)"><image xlink:href="../../FF808925-EA94-42F2-BF08-1A0BBEC57B24/assets/7C1B41131C2A57FD408BA9280F6AA46C.png" width="432.00" height="160.00" transform="matrix(0.24, 0.00, -0.00, -0.24, 367.8, 506.7)"></image></g></g></g></g></g></g></g><g><clipPath id="clip0x610000aa0660"><path d="M 221.0 155.0 L 803.0 155.0 L 803.0 642.0 L 221.0 642.0 Z M 221.0 155.0 "></path></clipPath><g clip-path="url(#clip0x610000aa0660)"><text xml:space="preserve" font-family="PTSans-Regular,PT Sans" font-size="24.0" fill="#FDFDFD" transform="matrix(1.00, 0.00, -0.00, -1.00, 373.8, 482.3)">t</text><text xml:space="preserve" font-family="PTSans-Regular,PT Sans" font-size="24.0" fill="#FDFDFD" transform="matrix(1.00, 0.00, -0.00, -1.00, 381.7, 482.3)">e</text><text xml:space="preserve" font-family="PTSans-Regular,PT Sans" font-size="24.0" fill="#FDFDFD" transform="matrix(1.00, 0.00, -0.00, -1.00, 393.9, 482.3)">m</text><text xml:space="preserve" font-family="PTSans-Regular,PT Sans" font-size="24.0" fill="#FDFDFD" transform="matrix(1.00, 0.00, -0.00, -1.00, 413.4, 482.3)">p</text><text xml:space="preserve" font-family="PTSans-Regular,PT Sans" font-size="24.0" fill="#FDFDFD" transform="matrix(1.00, 0.00, -0.00, -1.00, 426.4, 482.3)">l</text><text xml:space="preserve" font-family="PTSans-Regular,PT Sans" font-size="24.0" fill="#FDFDFD" transform="matrix(1.00, 0.00, -0.00, -1.00, 433.4, 482.3)">a</text><text xml:space="preserve" font-family="PTSans-Regular,PT Sans" font-size="24.0" fill="#FDFDFD" transform="matrix(1.00, 0.00, -0.00, -1.00, 445.3, 482.3)">t</text><text xml:space="preserve" font-family="PTSans-Regular,PT Sans" font-size="24.0" fill="#FDFDFD" transform="matrix(1.00, 0.00, -0.00, -1.00, 453.2, 482.3)">e</text></g></g><g><clipPath id="clip0x610000aa0240"><path d="M 221.0 642.0 L 803.0 642.0 L 803.0 155.0 L 221.0 155.0 Z M 221.0 642.0 "></path></clipPath><g clip-path="url(#clip0x610000aa0240)"><g><clipPath id="clip0x610000aa08a0"><path d="M 221.0 155.0 L 803.0 155.0 L 803.0 642.0 L 221.0 642.0 Z M 221.0 155.0 "></path></clipPath><g clip-path="url(#clip0x610000aa08a0)"><text xml:space="preserve" font-family="PTSans-Regular,PT Sans" font-size="24.0" fill="#424243" transform="matrix(1.00, 0.00, -0.00, -1.00, 479.2, 621.6)">m</text><text xml:space="preserve" font-family="PTSans-Regular,PT Sans" font-size="24.0" fill="#424243" transform="matrix(1.00, 0.00, -0.00, -1.00, 498.7, 621.6)">o</text><text xml:space="preserve" font-family="PTSans-Regular,PT Sans" font-size="24.0" fill="#424243" transform="matrix(1.00, 0.00, -0.00, -1.00, 511.6, 621.6)">d</text><text xml:space="preserve" font-family="PTSans-Regular,PT Sans" font-size="24.0" fill="#424243" transform="matrix(1.00, 0.00, -0.00, -1.00, 524.5, 621.6)">u</text><text xml:space="preserve" font-family="PTSans-Regular,PT Sans" font-size="24.0" fill="#424243" transform="matrix(1.00, 0.00, -0.00, -1.00, 537.5, 621.6)">l</text><text xml:space="preserve" font-family="PTSans-Regular,PT Sans" font-size="24.0" fill="#424243" transform="matrix(1.00, 0.00, -0.00, -1.00, 544.5, 621.6)">e</text><path d="M 342.1 313.5 L 345.1 305.0 L 354.1 306.4 L 340.4 297.0 Z M 342.1 313.5 " fill="#424243"></path><path d="M 395.9 391.6 L 397.4 390.7 L 400.0 395.1 L 398.5 396.0 Z M 395.9 391.6 " fill="#424243"></path><path d="M 392.1 385.2 L 393.6 384.3 L 396.2 388.6 L 394.6 389.5 Z M 392.1 385.2 " fill="#424243"></path><path d="M 388.2 378.7 L 389.7 377.8 L 392.3 382.1 L 390.8 383.0 Z M 388.2 378.7 " fill="#424243"></path><path d="M 384.4 372.2 L 385.9 371.3 L 388.5 375.6 L 386.9 376.6 Z M 384.4 372.2 " fill="#424243"></path><path d="M 380.5 365.7 L 382.0 364.8 L 384.6 369.2 L 383.1 370.1 Z M 380.5 365.7 " fill="#424243"></path><path d="M 376.7 359.2 L 378.2 358.3 L 380.8 362.7 L 379.2 363.6 Z M 376.7 359.2 " fill="#424243"></path><path d="M 372.8 352.8 L 374.3 351.9 L 376.9 356.2 L 375.4 357.1 Z M 372.8 352.8 " fill="#424243"></path><path d="M 369.0 346.3 L 370.5 345.4 L 373.1 349.7 L 371.5 350.6 Z M 369.0 346.3 " fill="#424243"></path><path d="M 365.1 339.8 L 366.6 338.9 L 369.2 343.3 L 367.7 344.2 Z M 365.1 339.8 " fill="#424243"></path><path d="M 361.3 333.3 L 362.8 332.4 L 365.4 336.8 L 363.8 337.7 Z M 361.3 333.3 " fill="#424243"></path><path d="M 357.4 326.9 L 358.9 325.9 L 361.5 330.3 L 360.0 331.2 Z M 357.4 326.9 " fill="#424243"></path><path d="M 353.5 320.4 L 355.1 319.5 L 357.7 323.8 L 356.1 324.7 Z M 353.5 320.4 " fill="#424243"></path><path d="M 349.7 313.9 L 351.2 313.0 L 353.8 317.3 L 352.3 318.2 Z M 349.7 313.9 " fill="#424243"></path><path d="M 345.8 307.4 L 347.4 306.5 L 350.0 310.9 L 348.4 311.8 Z M 345.8 307.4 " fill="#424243"></path><path d="M 797.5 586.8 L 802.1 586.8 L 802.1 588.6 L 797.5 588.6 Z M 797.5 586.8 " fill="#ADACAD"></path><path d="M 790.5 586.8 L 795.2 586.8 L 795.2 588.6 L 790.5 588.6 Z M 790.5 586.8 " fill="#ADACAD"></path><path d="M 783.5 586.8 L 788.2 586.8 L 788.2 588.6 L 783.5 588.6 Z M 783.5 586.8 " fill="#ADACAD"></path><path d="M 776.5 586.8 L 781.2 586.8 L 781.2 588.6 L 776.5 588.6 Z M 776.5 586.8 " fill="#ADACAD"></path><path d="M 769.6 586.8 L 774.3 586.8 L 774.3 588.6 L 769.6 588.6 Z M 769.6 586.8 " fill="#ADACAD"></path><path d="M 762.6 586.8 L 767.3 586.8 L 767.3 588.6 L 762.6 588.6 Z M 762.6 586.8 " fill="#ADACAD"></path><path d="M 755.6 586.8 L 760.3 586.8 L 760.3 588.6 L 755.6 588.6 Z M 755.6 586.8 " fill="#ADACAD"></path><path d="M 748.7 586.8 L 753.3 586.8 L 753.3 588.6 L 748.7 588.6 Z M 748.7 586.8 " fill="#ADACAD"></path><path d="M 741.7 586.8 L 746.4 586.8 L 746.4 588.6 L 741.7 588.6 Z M 741.7 586.8 " fill="#ADACAD"></path><path d="M 734.7 586.8 L 739.4 586.8 L 739.4 588.6 L 734.7 588.6 Z M 734.7 586.8 " fill="#ADACAD"></path><path d="M 727.8 586.8 L 732.4 586.8 L 732.4 588.6 L 727.8 588.6 Z M 727.8 586.8 " fill="#ADACAD"></path><path d="M 720.8 586.8 L 725.5 586.8 L 725.5 588.6 L 720.8 588.6 Z M 720.8 586.8 " fill="#ADACAD"></path><path d="M 713.8 586.8 L 718.5 586.8 L 718.5 588.6 L 713.8 588.6 Z M 713.8 586.8 " fill="#ADACAD"></path><path d="M 706.9 586.8 L 711.5 586.8 L 711.5 588.6 L 706.9 588.6 Z M 706.9 586.8 " fill="#ADACAD"></path><path d="M 699.9 586.8 L 704.6 586.8 L 704.6 588.6 L 699.9 588.6 Z M 699.9 586.8 " fill="#ADACAD"></path><path d="M 692.9 586.8 L 697.6 586.8 L 697.6 588.6 L 692.9 588.6 Z M 692.9 586.8 " fill="#ADACAD"></path><path d="M 685.9 586.8 L 690.6 586.8 L 690.6 588.6 L 685.9 588.6 Z M 685.9 586.8 " fill="#ADACAD"></path><path d="M 679.0 586.8 L 683.7 586.8 L 683.7 588.6 L 679.0 588.6 Z M 679.0 586.8 " fill="#ADACAD"></path><path d="M 672.0 586.8 L 676.7 586.8 L 676.7 588.6 L 672.0 588.6 Z M 672.0 586.8 " fill="#ADACAD"></path><path d="M 665.0 586.8 L 669.7 586.8 L 669.7 588.6 L 665.0 588.6 Z M 665.0 586.8 " fill="#ADACAD"></path><path d="M 658.1 586.8 L 662.7 586.8 L 662.7 588.6 L 658.1 588.6 Z M 658.1 586.8 " fill="#ADACAD"></path><path d="M 651.1 586.8 L 655.8 586.8 L 655.8 588.6 L 651.1 588.6 Z M 651.1 586.8 " fill="#ADACAD"></path><path d="M 644.1 586.8 L 648.8 586.8 L 648.8 588.6 L 644.1 588.6 Z M 644.1 586.8 " fill="#ADACAD"></path><path d="M 637.2 586.8 L 641.8 586.8 L 641.8 588.6 L 637.2 588.6 Z M 637.2 586.8 " fill="#ADACAD"></path><path d="M 630.2 586.8 L 634.9 586.8 L 634.9 588.6 L 630.2 588.6 Z M 630.2 586.8 " fill="#ADACAD"></path><path d="M 623.2 586.8 L 627.9 586.8 L 627.9 588.6 L 623.2 588.6 Z M 623.2 586.8 " fill="#ADACAD"></path><path d="M 616.2 586.8 L 620.9 586.8 L 620.9 588.6 L 616.2 588.6 Z M 616.2 586.8 " fill="#ADACAD"></path><path d="M 609.3 586.8 L 614.0 586.8 L 614.0 588.6 L 609.3 588.6 Z M 609.3 586.8 " fill="#ADACAD"></path><path d="M 602.3 586.8 L 607.0 586.8 L 607.0 588.6 L 602.3 588.6 Z M 602.3 586.8 " fill="#ADACAD"></path><path d="M 595.3 586.8 L 600.0 586.8 L 600.0 588.6 L 595.3 588.6 Z M 595.3 586.8 " fill="#ADACAD"></path><path d="M 588.4 586.8 L 593.0 586.8 L 593.0 588.6 L 588.4 588.6 Z M 588.4 586.8 " fill="#ADACAD"></path><path d="M 581.4 586.8 L 586.1 586.8 L 586.1 588.6 L 581.4 588.6 Z M 581.4 586.8 " fill="#ADACAD"></path><path d="M 574.4 586.8 L 579.1 586.8 L 579.1 588.6 L 574.4 588.6 Z M 574.4 586.8 " fill="#ADACAD"></path><path d="M 567.5 586.8 L 572.1 586.8 L 572.1 588.6 L 567.5 588.6 Z M 567.5 586.8 " fill="#ADACAD"></path><path d="M 560.5 586.8 L 565.2 586.8 L 565.2 588.6 L 560.5 588.6 Z M 560.5 586.8 " fill="#ADACAD"></path><path d="M 470.1 586.8 L 475.0 586.8 L 475.0 588.6 L 470.1 588.6 Z M 470.1 586.8 " fill="#ADACAD"></path><path d="M 462.9 586.8 L 467.7 586.8 L 467.7 588.6 L 462.9 588.6 Z M 462.9 586.8 " fill="#ADACAD"></path><path d="M 455.7 586.8 L 460.5 586.8 L 460.5 588.6 L 455.7 588.6 Z M 455.7 586.8 " fill="#ADACAD"></path><path d="M 448.4 586.8 L 453.3 586.8 L 453.3 588.6 L 448.4 588.6 Z M 448.4 586.8 " fill="#ADACAD"></path><path d="M 441.2 586.8 L 446.1 586.8 L 446.1 588.6 L 441.2 588.6 Z M 441.2 586.8 " fill="#ADACAD"></path><path d="M 434.0 586.8 L 438.8 586.8 L 438.8 588.6 L 434.0 588.6 Z M 434.0 586.8 " fill="#ADACAD"></path><path d="M 426.7 586.8 L 431.6 586.8 L 431.6 588.6 L 426.7 588.6 Z M 426.7 586.8 " fill="#ADACAD"></path><path d="M 419.5 586.8 L 424.4 586.8 L 424.4 588.6 L 419.5 588.6 Z M 419.5 586.8 " fill="#ADACAD"></path><path d="M 412.3 586.8 L 417.1 586.8 L 417.1 588.6 L 412.3 588.6 Z M 412.3 586.8 " fill="#ADACAD"></path><path d="M 405.0 586.8 L 409.9 586.8 L 409.9 588.6 L 405.0 588.6 Z M 405.0 586.8 " fill="#ADACAD"></path><path d="M 397.8 586.8 L 402.7 586.8 L 402.7 588.6 L 397.8 588.6 Z M 397.8 586.8 " fill="#ADACAD"></path><path d="M 390.6 586.8 L 395.4 586.8 L 395.4 588.6 L 390.6 588.6 Z M 390.6 586.8 " fill="#ADACAD"></path><path d="M 383.4 586.8 L 388.2 586.8 L 388.2 588.6 L 383.4 588.6 Z M 383.4 586.8 " fill="#ADACAD"></path><path d="M 376.1 586.8 L 381.0 586.8 L 381.0 588.6 L 376.1 588.6 Z M 376.1 586.8 " fill="#ADACAD"></path><path d="M 368.9 586.8 L 373.8 586.8 L 373.8 588.6 L 368.9 588.6 Z M 368.9 586.8 " fill="#ADACAD"></path><path d="M 361.7 586.8 L 366.5 586.8 L 366.5 588.6 L 361.7 588.6 Z M 361.7 586.8 " fill="#ADACAD"></path><path d="M 354.4 586.8 L 359.3 586.8 L 359.3 588.6 L 354.4 588.6 Z M 354.4 586.8 " fill="#ADACAD"></path><path d="M 347.2 586.8 L 352.1 586.8 L 352.1 588.6 L 347.2 588.6 Z M 347.2 586.8 " fill="#ADACAD"></path><path d="M 340.0 586.8 L 344.8 586.8 L 344.8 588.6 L 340.0 588.6 Z M 340.0 586.8 " fill="#ADACAD"></path><path d="M 332.7 586.8 L 337.6 586.8 L 337.6 588.6 L 332.7 588.6 Z M 332.7 586.8 " fill="#ADACAD"></path><path d="M 325.5 586.8 L 330.4 586.8 L 330.4 588.6 L 325.5 588.6 Z M 325.5 586.8 " fill="#ADACAD"></path><path d="M 318.3 586.8 L 323.1 586.8 L 323.1 588.6 L 318.3 588.6 Z M 318.3 586.8 " fill="#ADACAD"></path><path d="M 311.1 586.8 L 315.9 586.8 L 315.9 588.6 L 311.1 588.6 Z M 311.1 586.8 " fill="#ADACAD"></path><path d="M 303.8 586.8 L 308.7 586.8 L 308.7 588.6 L 303.8 588.6 Z M 303.8 586.8 " fill="#ADACAD"></path><path d="M 296.6 586.8 L 301.4 586.8 L 301.4 588.6 L 296.6 588.6 Z M 296.6 586.8 " fill="#ADACAD"></path><path d="M 289.4 586.8 L 294.2 586.8 L 294.2 588.6 L 289.4 588.6 Z M 289.4 586.8 " fill="#ADACAD"></path><path d="M 282.1 586.8 L 287.0 586.8 L 287.0 588.6 L 282.1 588.6 Z M 282.1 586.8 " fill="#ADACAD"></path><path d="M 274.9 586.8 L 279.8 586.8 L 279.8 588.6 L 274.9 588.6 Z M 274.9 586.8 " fill="#ADACAD"></path><path d="M 267.7 586.8 L 272.5 586.8 L 272.5 588.6 L 267.7 588.6 Z M 267.7 586.8 " fill="#ADACAD"></path><path d="M 260.4 586.8 L 265.3 586.8 L 265.3 588.6 L 260.4 588.6 Z M 260.4 586.8 " fill="#ADACAD"></path><path d="M 253.2 586.8 L 258.1 586.8 L 258.1 588.6 L 253.2 588.6 Z M 253.2 586.8 " fill="#ADACAD"></path><path d="M 246.0 586.8 L 250.8 586.8 L 250.8 588.6 L 246.0 588.6 Z M 246.0 586.8 " fill="#ADACAD"></path><path d="M 238.7 586.8 L 243.6 586.8 L 243.6 588.6 L 238.7 588.6 Z M 238.7 586.8 " fill="#ADACAD"></path><path d="M 231.5 586.8 L 236.4 586.8 L 236.4 588.6 L 231.5 588.6 Z M 231.5 586.8 " fill="#ADACAD"></path><path d="M 224.3 586.8 L 229.1 586.8 L 229.1 588.6 L 224.3 588.6 Z M 224.3 586.8 " fill="#ADACAD"></path><path d="M 797.5 155.0 L 802.1 155.0 L 802.1 156.8 L 797.5 156.8 Z M 797.5 155.0 " fill="#ADACAD"></path><path d="M 790.6 155.0 L 795.2 155.0 L 795.2 156.8 L 790.6 156.8 Z M 790.6 155.0 " fill="#ADACAD"></path><path d="M 783.7 155.0 L 788.3 155.0 L 788.3 156.8 L 783.7 156.8 Z M 783.7 155.0 " fill="#ADACAD"></path><path d="M 776.8 155.0 L 781.4 155.0 L 781.4 156.8 L 776.8 156.8 Z M 776.8 155.0 " fill="#ADACAD"></path><path d="M 769.9 155.0 L 774.5 155.0 L 774.5 156.8 L 769.9 156.8 Z M 769.9 155.0 " fill="#ADACAD"></path><path d="M 763.0 155.0 L 767.6 155.0 L 767.6 156.8 L 763.0 156.8 Z M 763.0 155.0 " fill="#ADACAD"></path><path d="M 756.1 155.0 L 760.7 155.0 L 760.7 156.8 L 756.1 156.8 Z M 756.1 155.0 " fill="#ADACAD"></path><path d="M 749.1 155.0 L 753.8 155.0 L 753.8 156.8 L 749.1 156.8 Z M 749.1 155.0 " fill="#ADACAD"></path><path d="M 742.2 155.0 L 746.9 155.0 L 746.9 156.8 L 742.2 156.8 Z M 742.2 155.0 " fill="#ADACAD"></path><path d="M 735.3 155.0 L 740.0 155.0 L 740.0 156.8 L 735.3 156.8 Z M 735.3 155.0 " fill="#ADACAD"></path><path d="M 728.4 155.0 L 733.1 155.0 L 733.1 156.8 L 728.4 156.8 Z M 728.4 155.0 " fill="#ADACAD"></path><path d="M 721.5 155.0 L 726.2 155.0 L 726.2 156.8 L 721.5 156.8 Z M 721.5 155.0 " fill="#ADACAD"></path><path d="M 714.6 155.0 L 719.2 155.0 L 719.2 156.8 L 714.6 156.8 Z M 714.6 155.0 " fill="#ADACAD"></path><path d="M 707.7 155.0 L 712.3 155.0 L 712.3 156.8 L 707.7 156.8 Z M 707.7 155.0 " fill="#ADACAD"></path><path d="M 700.8 155.0 L 705.4 155.0 L 705.4 156.8 L 700.8 156.8 Z M 700.8 155.0 " fill="#ADACAD"></path><path d="M 693.9 155.0 L 698.5 155.0 L 698.5 156.8 L 693.9 156.8 Z M 693.9 155.0 " fill="#ADACAD"></path><path d="M 687.0 155.0 L 691.6 155.0 L 691.6 156.8 L 687.0 156.8 Z M 687.0 155.0 " fill="#ADACAD"></path><path d="M 680.1 155.0 L 684.7 155.0 L 684.7 156.8 L 680.1 156.8 Z M 680.1 155.0 " fill="#ADACAD"></path><path d="M 673.2 155.0 L 677.8 155.0 L 677.8 156.8 L 673.2 156.8 Z M 673.2 155.0 " fill="#ADACAD"></path><path d="M 666.3 155.0 L 670.9 155.0 L 670.9 156.8 L 666.3 156.8 Z M 666.3 155.0 " fill="#ADACAD"></path><path d="M 659.3 155.0 L 664.0 155.0 L 664.0 156.8 L 659.3 156.8 Z M 659.3 155.0 " fill="#ADACAD"></path><path d="M 652.4 155.0 L 657.1 155.0 L 657.1 156.8 L 652.4 156.8 Z M 652.4 155.0 " fill="#ADACAD"></path><path d="M 645.5 155.0 L 650.2 155.0 L 650.2 156.8 L 645.5 156.8 Z M 645.5 155.0 " fill="#ADACAD"></path><path d="M 638.6 155.0 L 643.3 155.0 L 643.3 156.8 L 638.6 156.8 Z M 638.6 155.0 " fill="#ADACAD"></path><path d="M 631.7 155.0 L 636.4 155.0 L 636.4 156.8 L 631.7 156.8 Z M 631.7 155.0 " fill="#ADACAD"></path><path d="M 624.8 155.0 L 629.4 155.0 L 629.4 156.8 L 624.8 156.8 Z M 624.8 155.0 " fill="#ADACAD"></path><path d="M 617.9 155.0 L 622.5 155.0 L 622.5 156.8 L 617.9 156.8 Z M 617.9 155.0 " fill="#ADACAD"></path><path d="M 611.0 155.0 L 615.6 155.0 L 615.6 156.8 L 611.0 156.8 Z M 611.0 155.0 " fill="#ADACAD"></path><path d="M 604.1 155.0 L 608.7 155.0 L 608.7 156.8 L 604.1 156.8 Z M 604.1 155.0 " fill="#ADACAD"></path><path d="M 597.2 155.0 L 601.8 155.0 L 601.8 156.8 L 597.2 156.8 Z M 597.2 155.0 " fill="#ADACAD"></path><path d="M 590.3 155.0 L 594.9 155.0 L 594.9 156.8 L 590.3 156.8 Z M 590.3 155.0 " fill="#ADACAD"></path><path d="M 583.4 155.0 L 588.0 155.0 L 588.0 156.8 L 583.4 156.8 Z M 583.4 155.0 " fill="#ADACAD"></path><path d="M 576.5 155.0 L 581.1 155.0 L 581.1 156.8 L 576.5 156.8 Z M 576.5 155.0 " fill="#ADACAD"></path><path d="M 569.6 155.0 L 574.2 155.0 L 574.2 156.8 L 569.6 156.8 Z M 569.6 155.0 " fill="#ADACAD"></path><path d="M 562.6 155.0 L 567.3 155.0 L 567.3 156.8 L 562.6 156.8 Z M 562.6 155.0 " fill="#ADACAD"></path><path d="M 555.7 155.0 L 560.4 155.0 L 560.4 156.8 L 555.7 156.8 Z M 555.7 155.0 " fill="#ADACAD"></path><path d="M 548.8 155.0 L 553.5 155.0 L 553.5 156.8 L 548.8 156.8 Z M 548.8 155.0 " fill="#ADACAD"></path><path d="M 541.9 155.0 L 546.6 155.0 L 546.6 156.8 L 541.9 156.8 Z M 541.9 155.0 " fill="#ADACAD"></path><path d="M 535.0 155.0 L 539.7 155.0 L 539.7 156.8 L 535.0 156.8 Z M 535.0 155.0 " fill="#ADACAD"></path><path d="M 528.1 155.0 L 532.7 155.0 L 532.7 156.8 L 528.1 156.8 Z M 528.1 155.0 " fill="#ADACAD"></path><path d="M 521.2 155.0 L 525.8 155.0 L 525.8 156.8 L 521.2 156.8 Z M 521.2 155.0 " fill="#ADACAD"></path><path d="M 514.3 155.0 L 518.9 155.0 L 518.9 156.8 L 514.3 156.8 Z M 514.3 155.0 " fill="#ADACAD"></path><path d="M 507.4 155.0 L 512.0 155.0 L 512.0 156.8 L 507.4 156.8 Z M 507.4 155.0 " fill="#ADACAD"></path><path d="M 500.5 155.0 L 505.1 155.0 L 505.1 156.8 L 500.5 156.8 Z M 500.5 155.0 " fill="#ADACAD"></path><path d="M 493.6 155.0 L 498.2 155.0 L 498.2 156.8 L 493.6 156.8 Z M 493.6 155.0 " fill="#ADACAD"></path><path d="M 486.7 155.0 L 491.3 155.0 L 491.3 156.8 L 486.7 156.8 Z M 486.7 155.0 " fill="#ADACAD"></path><path d="M 479.8 155.0 L 484.4 155.0 L 484.4 156.8 L 479.8 156.8 Z M 479.8 155.0 " fill="#ADACAD"></path><path d="M 472.8 155.0 L 477.5 155.0 L 477.5 156.8 L 472.8 156.8 Z M 472.8 155.0 " fill="#ADACAD"></path><path d="M 465.9 155.0 L 470.6 155.0 L 470.6 156.8 L 465.9 156.8 Z M 465.9 155.0 " fill="#ADACAD"></path><path d="M 459.0 155.0 L 463.7 155.0 L 463.7 156.8 L 459.0 156.8 Z M 459.0 155.0 " fill="#ADACAD"></path><path d="M 452.1 155.0 L 456.8 155.0 L 456.8 156.8 L 452.1 156.8 Z M 452.1 155.0 " fill="#ADACAD"></path><path d="M 445.2 155.0 L 449.9 155.0 L 449.9 156.8 L 445.2 156.8 Z M 445.2 155.0 " fill="#ADACAD"></path><path d="M 438.3 155.0 L 443.0 155.0 L 443.0 156.8 L 438.3 156.8 Z M 438.3 155.0 " fill="#ADACAD"></path><path d="M 431.4 155.0 L 436.0 155.0 L 436.0 156.8 L 431.4 156.8 Z M 431.4 155.0 " fill="#ADACAD"></path><path d="M 424.5 155.0 L 429.1 155.0 L 429.1 156.8 L 424.5 156.8 Z M 424.5 155.0 " fill="#ADACAD"></path><path d="M 417.6 155.0 L 422.2 155.0 L 422.2 156.8 L 417.6 156.8 Z M 417.6 155.0 " fill="#ADACAD"></path><path d="M 410.7 155.0 L 415.3 155.0 L 415.3 156.8 L 410.7 156.8 Z M 410.7 155.0 " fill="#ADACAD"></path><path d="M 403.8 155.0 L 408.4 155.0 L 408.4 156.8 L 403.8 156.8 Z M 403.8 155.0 " fill="#ADACAD"></path><path d="M 396.9 155.0 L 401.5 155.0 L 401.5 156.8 L 396.9 156.8 Z M 396.9 155.0 " fill="#ADACAD"></path><path d="M 390.0 155.0 L 394.6 155.0 L 394.6 156.8 L 390.0 156.8 Z M 390.0 155.0 " fill="#ADACAD"></path><path d="M 383.1 155.0 L 387.7 155.0 L 387.7 156.8 L 383.1 156.8 Z M 383.1 155.0 " fill="#ADACAD"></path><path d="M 376.1 155.0 L 380.8 155.0 L 380.8 156.8 L 376.1 156.8 Z M 376.1 155.0 " fill="#ADACAD"></path><path d="M 369.2 155.0 L 373.9 155.0 L 373.9 156.8 L 369.2 156.8 Z M 369.2 155.0 " fill="#ADACAD"></path><path d="M 362.3 155.0 L 367.0 155.0 L 367.0 156.8 L 362.3 156.8 Z M 362.3 155.0 " fill="#ADACAD"></path><path d="M 355.4 155.0 L 360.1 155.0 L 360.1 156.8 L 355.4 156.8 Z M 355.4 155.0 " fill="#ADACAD"></path><path d="M 348.5 155.0 L 353.2 155.0 L 353.2 156.8 L 348.5 156.8 Z M 348.5 155.0 " fill="#ADACAD"></path><path d="M 341.6 155.0 L 346.2 155.0 L 346.2 156.8 L 341.6 156.8 Z M 341.6 155.0 " fill="#ADACAD"></path><path d="M 334.7 155.0 L 339.3 155.0 L 339.3 156.8 L 334.7 156.8 Z M 334.7 155.0 " fill="#ADACAD"></path><path d="M 327.8 155.0 L 332.4 155.0 L 332.4 156.8 L 327.8 156.8 Z M 327.8 155.0 " fill="#ADACAD"></path><path d="M 320.9 155.0 L 325.5 155.0 L 325.5 156.8 L 320.9 156.8 Z M 320.9 155.0 " fill="#ADACAD"></path><path d="M 314.0 155.0 L 318.6 155.0 L 318.6 156.8 L 314.0 156.8 Z M 314.0 155.0 " fill="#ADACAD"></path><path d="M 307.1 155.0 L 311.7 155.0 L 311.7 156.8 L 307.1 156.8 Z M 307.1 155.0 " fill="#ADACAD"></path><path d="M 300.2 155.0 L 304.8 155.0 L 304.8 156.8 L 300.2 156.8 Z M 300.2 155.0 " fill="#ADACAD"></path><path d="M 293.3 155.0 L 297.9 155.0 L 297.9 156.8 L 293.3 156.8 Z M 293.3 155.0 " fill="#ADACAD"></path><path d="M 286.3 155.0 L 291.0 155.0 L 291.0 156.8 L 286.3 156.8 Z M 286.3 155.0 " fill="#ADACAD"></path><path d="M 279.4 155.0 L 284.1 155.0 L 284.1 156.8 L 279.4 156.8 Z M 279.4 155.0 " fill="#ADACAD"></path><path d="M 272.5 155.0 L 277.2 155.0 L 277.2 156.8 L 272.5 156.8 Z M 272.5 155.0 " fill="#ADACAD"></path><path d="M 265.6 155.0 L 270.3 155.0 L 270.3 156.8 L 265.6 156.8 Z M 265.6 155.0 " fill="#ADACAD"></path><path d="M 258.7 155.0 L 263.4 155.0 L 263.4 156.8 L 258.7 156.8 Z M 258.7 155.0 " fill="#ADACAD"></path><path d="M 251.8 155.0 L 256.5 155.0 L 256.5 156.8 L 251.8 156.8 Z M 251.8 155.0 " fill="#ADACAD"></path><path d="M 244.9 155.0 L 249.5 155.0 L 249.5 156.8 L 244.9 156.8 Z M 244.9 155.0 " fill="#ADACAD"></path><path d="M 238.0 155.0 L 242.6 155.0 L 242.6 156.8 L 238.0 156.8 Z M 238.0 155.0 " fill="#ADACAD"></path><path d="M 231.1 155.0 L 235.7 155.0 L 235.7 156.8 L 231.1 156.8 Z M 231.1 155.0 " fill="#ADACAD"></path><path d="M 224.2 155.0 L 228.8 155.0 L 228.8 156.8 L 224.2 156.8 Z M 224.2 155.0 " fill="#ADACAD"></path><path d="M 801.2 583.1 L 803.0 583.1 L 803.0 587.7 L 801.2 587.7 Z M 801.2 583.1 " fill="#ADACAD"></path><path d="M 801.2 576.2 L 803.0 576.2 L 803.0 580.8 L 801.2 580.8 Z M 801.2 576.2 " fill="#ADACAD"></path><path d="M 801.2 569.3 L 803.0 569.3 L 803.0 574.0 L 801.2 574.0 Z M 801.2 569.3 " fill="#ADACAD"></path><path d="M 801.2 562.5 L 803.0 562.5 L 803.0 567.1 L 801.2 567.1 Z M 801.2 562.5 " fill="#ADACAD"></path><path d="M 801.2 555.6 L 803.0 555.6 L 803.0 560.2 L 801.2 560.2 Z M 801.2 555.6 " fill="#ADACAD"></path><path d="M 801.2 548.8 L 803.0 548.8 L 803.0 553.4 L 801.2 553.4 Z M 801.2 548.8 " fill="#ADACAD"></path><path d="M 801.2 541.9 L 803.0 541.9 L 803.0 546.5 L 801.2 546.5 Z M 801.2 541.9 " fill="#ADACAD"></path><path d="M 801.2 535.1 L 803.0 535.1 L 803.0 539.7 L 801.2 539.7 Z M 801.2 535.1 " fill="#ADACAD"></path><path d="M 801.2 528.2 L 803.0 528.2 L 803.0 532.8 L 801.2 532.8 Z M 801.2 528.2 " fill="#ADACAD"></path><path d="M 801.2 521.4 L 803.0 521.4 L 803.0 526.0 L 801.2 526.0 Z M 801.2 521.4 " fill="#ADACAD"></path><path d="M 801.2 514.5 L 803.0 514.5 L 803.0 519.1 L 801.2 519.1 Z M 801.2 514.5 " fill="#ADACAD"></path><path d="M 801.2 507.7 L 803.0 507.7 L 803.0 512.3 L 801.2 512.3 Z M 801.2 507.7 " fill="#ADACAD"></path><path d="M 801.2 500.8 L 803.0 500.8 L 803.0 505.4 L 801.2 505.4 Z M 801.2 500.8 " fill="#ADACAD"></path><path d="M 801.2 494.0 L 803.0 494.0 L 803.0 498.6 L 801.2 498.6 Z M 801.2 494.0 " fill="#ADACAD"></path><path d="M 801.2 487.1 L 803.0 487.1 L 803.0 491.7 L 801.2 491.7 Z M 801.2 487.1 " fill="#ADACAD"></path><path d="M 801.2 480.2 L 803.0 480.2 L 803.0 484.9 L 801.2 484.9 Z M 801.2 480.2 " fill="#ADACAD"></path><path d="M 801.2 473.4 L 803.0 473.4 L 803.0 478.0 L 801.2 478.0 Z M 801.2 473.4 " fill="#ADACAD"></path><path d="M 801.2 466.5 L 803.0 466.5 L 803.0 471.1 L 801.2 471.1 Z M 801.2 466.5 " fill="#ADACAD"></path><path d="M 801.2 459.7 L 803.0 459.7 L 803.0 464.3 L 801.2 464.3 Z M 801.2 459.7 " fill="#ADACAD"></path><path d="M 801.2 452.8 L 803.0 452.8 L 803.0 457.4 L 801.2 457.4 Z M 801.2 452.8 " fill="#ADACAD"></path><path d="M 801.2 446.0 L 803.0 446.0 L 803.0 450.6 L 801.2 450.6 Z M 801.2 446.0 " fill="#ADACAD"></path><path d="M 801.2 439.1 L 803.0 439.1 L 803.0 443.7 L 801.2 443.7 Z M 801.2 439.1 " fill="#ADACAD"></path><path d="M 801.2 432.3 L 803.0 432.3 L 803.0 436.9 L 801.2 436.9 Z M 801.2 432.3 " fill="#ADACAD"></path><path d="M 801.2 425.4 L 803.0 425.4 L 803.0 430.0 L 801.2 430.0 Z M 801.2 425.4 " fill="#ADACAD"></path><path d="M 801.2 418.6 L 803.0 418.6 L 803.0 423.2 L 801.2 423.2 Z M 801.2 418.6 " fill="#ADACAD"></path><path d="M 801.2 411.7 L 803.0 411.7 L 803.0 416.3 L 801.2 416.3 Z M 801.2 411.7 " fill="#ADACAD"></path><path d="M 801.2 404.9 L 803.0 404.9 L 803.0 409.5 L 801.2 409.5 Z M 801.2 404.9 " fill="#ADACAD"></path><path d="M 801.2 398.0 L 803.0 398.0 L 803.0 402.6 L 801.2 402.6 Z M 801.2 398.0 " fill="#ADACAD"></path><path d="M 801.2 391.1 L 803.0 391.1 L 803.0 395.7 L 801.2 395.7 Z M 801.2 391.1 " fill="#ADACAD"></path><path d="M 801.2 384.3 L 803.0 384.3 L 803.0 388.9 L 801.2 388.9 Z M 801.2 384.3 " fill="#ADACAD"></path><path d="M 801.2 377.4 L 803.0 377.4 L 803.0 382.0 L 801.2 382.0 Z M 801.2 377.4 " fill="#ADACAD"></path><path d="M 801.2 370.6 L 803.0 370.6 L 803.0 375.2 L 801.2 375.2 Z M 801.2 370.6 " fill="#ADACAD"></path><path d="M 801.2 363.7 L 803.0 363.7 L 803.0 368.3 L 801.2 368.3 Z M 801.2 363.7 " fill="#ADACAD"></path><path d="M 801.2 356.9 L 803.0 356.9 L 803.0 361.5 L 801.2 361.5 Z M 801.2 356.9 " fill="#ADACAD"></path><path d="M 801.2 350.0 L 803.0 350.0 L 803.0 354.6 L 801.2 354.6 Z M 801.2 350.0 " fill="#ADACAD"></path><path d="M 801.2 343.2 L 803.0 343.2 L 803.0 347.8 L 801.2 347.8 Z M 801.2 343.2 " fill="#ADACAD"></path><path d="M 801.2 336.3 L 803.0 336.3 L 803.0 340.9 L 801.2 340.9 Z M 801.2 336.3 " fill="#ADACAD"></path><path d="M 801.2 329.5 L 803.0 329.5 L 803.0 334.1 L 801.2 334.1 Z M 801.2 329.5 " fill="#ADACAD"></path><path d="M 801.2 322.6 L 803.0 322.6 L 803.0 327.2 L 801.2 327.2 Z M 801.2 322.6 " fill="#ADACAD"></path><path d="M 801.2 315.8 L 803.0 315.8 L 803.0 320.4 L 801.2 320.4 Z M 801.2 315.8 " fill="#ADACAD"></path><path d="M 801.2 308.9 L 803.0 308.9 L 803.0 313.5 L 801.2 313.5 Z M 801.2 308.9 " fill="#ADACAD"></path><path d="M 801.2 302.0 L 803.0 302.0 L 803.0 306.6 L 801.2 306.6 Z M 801.2 302.0 " fill="#ADACAD"></path><path d="M 801.2 295.2 L 803.0 295.2 L 803.0 299.8 L 801.2 299.8 Z M 801.2 295.2 " fill="#ADACAD"></path><path d="M 801.2 288.3 L 803.0 288.3 L 803.0 292.9 L 801.2 292.9 Z M 801.2 288.3 " fill="#ADACAD"></path><path d="M 801.2 281.5 L 803.0 281.5 L 803.0 286.1 L 801.2 286.1 Z M 801.2 281.5 " fill="#ADACAD"></path><path d="M 801.2 274.6 L 803.0 274.6 L 803.0 279.2 L 801.2 279.2 Z M 801.2 274.6 " fill="#ADACAD"></path><path d="M 801.2 267.8 L 803.0 267.8 L 803.0 272.4 L 801.2 272.4 Z M 801.2 267.8 " fill="#ADACAD"></path><path d="M 801.2 260.9 L 803.0 260.9 L 803.0 265.5 L 801.2 265.5 Z M 801.2 260.9 " fill="#ADACAD"></path><path d="M 801.2 254.1 L 803.0 254.1 L 803.0 258.7 L 801.2 258.7 Z M 801.2 254.1 " fill="#ADACAD"></path><path d="M 801.2 247.2 L 803.0 247.2 L 803.0 251.8 L 801.2 251.8 Z M 801.2 247.2 " fill="#ADACAD"></path><path d="M 801.2 240.4 L 803.0 240.4 L 803.0 245.0 L 801.2 245.0 Z M 801.2 240.4 " fill="#ADACAD"></path><path d="M 801.2 233.5 L 803.0 233.5 L 803.0 238.1 L 801.2 238.1 Z M 801.2 233.5 " fill="#ADACAD"></path><path d="M 801.2 226.7 L 803.0 226.7 L 803.0 231.3 L 801.2 231.3 Z M 801.2 226.7 " fill="#ADACAD"></path><path d="M 801.2 219.8 L 803.0 219.8 L 803.0 224.4 L 801.2 224.4 Z M 801.2 219.8 " fill="#ADACAD"></path><path d="M 801.2 212.9 L 803.0 212.9 L 803.0 217.5 L 801.2 217.5 Z M 801.2 212.9 " fill="#ADACAD"></path><path d="M 801.2 206.1 L 803.0 206.1 L 803.0 210.7 L 801.2 210.7 Z M 801.2 206.1 " fill="#ADACAD"></path><path d="M 801.2 199.2 L 803.0 199.2 L 803.0 203.8 L 801.2 203.8 Z M 801.2 199.2 " fill="#ADACAD"></path><path d="M 801.2 192.4 L 803.0 192.4 L 803.0 197.0 L 801.2 197.0 Z M 801.2 192.4 " fill="#ADACAD"></path><path d="M 801.2 185.5 L 803.0 185.5 L 803.0 190.1 L 801.2 190.1 Z M 801.2 185.5 " fill="#ADACAD"></path><path d="M 801.2 178.7 L 803.0 178.7 L 803.0 183.3 L 801.2 183.3 Z M 801.2 178.7 " fill="#ADACAD"></path><path d="M 801.2 171.8 L 803.0 171.8 L 803.0 176.4 L 801.2 176.4 Z M 801.2 171.8 " fill="#ADACAD"></path><path d="M 801.2 165.0 L 803.0 165.0 L 803.0 169.6 L 801.2 169.6 Z M 801.2 165.0 " fill="#ADACAD"></path><path d="M 801.2 158.1 L 803.0 158.1 L 803.0 162.7 L 801.2 162.7 Z M 801.2 158.1 " fill="#ADACAD"></path><path d="M 221.0 583.1 L 222.8 583.1 L 222.8 587.7 L 221.0 587.7 Z M 221.0 583.1 " fill="#ADACAD"></path><path d="M 221.0 576.2 L 222.8 576.2 L 222.8 580.8 L 221.0 580.8 Z M 221.0 576.2 " fill="#ADACAD"></path><path d="M 221.0 569.3 L 222.8 569.3 L 222.8 574.0 L 221.0 574.0 Z M 221.0 569.3 " fill="#ADACAD"></path><path d="M 221.0 562.5 L 222.8 562.5 L 222.8 567.1 L 221.0 567.1 Z M 221.0 562.5 " fill="#ADACAD"></path><path d="M 221.0 555.6 L 222.8 555.6 L 222.8 560.2 L 221.0 560.2 Z M 221.0 555.6 " fill="#ADACAD"></path><path d="M 221.0 548.8 L 222.8 548.8 L 222.8 553.4 L 221.0 553.4 Z M 221.0 548.8 " fill="#ADACAD"></path><path d="M 221.0 541.9 L 222.8 541.9 L 222.8 546.5 L 221.0 546.5 Z M 221.0 541.9 " fill="#ADACAD"></path><path d="M 221.0 535.1 L 222.8 535.1 L 222.8 539.7 L 221.0 539.7 Z M 221.0 535.1 " fill="#ADACAD"></path><path d="M 221.0 528.2 L 222.8 528.2 L 222.8 532.8 L 221.0 532.8 Z M 221.0 528.2 " fill="#ADACAD"></path><path d="M 221.0 521.4 L 222.8 521.4 L 222.8 526.0 L 221.0 526.0 Z M 221.0 521.4 " fill="#ADACAD"></path><path d="M 221.0 514.5 L 222.8 514.5 L 222.8 519.1 L 221.0 519.1 Z M 221.0 514.5 " fill="#ADACAD"></path><path d="M 221.0 507.7 L 222.8 507.7 L 222.8 512.3 L 221.0 512.3 Z M 221.0 507.7 " fill="#ADACAD"></path><path d="M 221.0 500.8 L 222.8 500.8 L 222.8 505.4 L 221.0 505.4 Z M 221.0 500.8 " fill="#ADACAD"></path><path d="M 221.0 494.0 L 222.8 494.0 L 222.8 498.6 L 221.0 498.6 Z M 221.0 494.0 " fill="#ADACAD"></path><path d="M 221.0 487.1 L 222.8 487.1 L 222.8 491.7 L 221.0 491.7 Z M 221.0 487.1 " fill="#ADACAD"></path><path d="M 221.0 480.2 L 222.8 480.2 L 222.8 484.9 L 221.0 484.9 Z M 221.0 480.2 " fill="#ADACAD"></path><path d="M 221.0 473.4 L 222.8 473.4 L 222.8 478.0 L 221.0 478.0 Z M 221.0 473.4 " fill="#ADACAD"></path><path d="M 221.0 466.5 L 222.8 466.5 L 222.8 471.1 L 221.0 471.1 Z M 221.0 466.5 " fill="#ADACAD"></path><path d="M 221.0 459.7 L 222.8 459.7 L 222.8 464.3 L 221.0 464.3 Z M 221.0 459.7 " fill="#ADACAD"></path><path d="M 221.0 452.8 L 222.8 452.8 L 222.8 457.4 L 221.0 457.4 Z M 221.0 452.8 " fill="#ADACAD"></path><path d="M 221.0 446.0 L 222.8 446.0 L 222.8 450.6 L 221.0 450.6 Z M 221.0 446.0 " fill="#ADACAD"></path><path d="M 221.0 439.1 L 222.8 439.1 L 222.8 443.7 L 221.0 443.7 Z M 221.0 439.1 " fill="#ADACAD"></path><path d="M 221.0 432.3 L 222.8 432.3 L 222.8 436.9 L 221.0 436.9 Z M 221.0 432.3 " fill="#ADACAD"></path><path d="M 221.0 425.4 L 222.8 425.4 L 222.8 430.0 L 221.0 430.0 Z M 221.0 425.4 " fill="#ADACAD"></path><path d="M 221.0 418.6 L 222.8 418.6 L 222.8 423.2 L 221.0 423.2 Z M 221.0 418.6 " fill="#ADACAD"></path><path d="M 221.0 411.7 L 222.8 411.7 L 222.8 416.3 L 221.0 416.3 Z M 221.0 411.7 " fill="#ADACAD"></path><path d="M 221.0 404.9 L 222.8 404.9 L 222.8 409.5 L 221.0 409.5 Z M 221.0 404.9 " fill="#ADACAD"></path><path d="M 221.0 398.0 L 222.8 398.0 L 222.8 402.6 L 221.0 402.6 Z M 221.0 398.0 " fill="#ADACAD"></path><path d="M 221.0 391.1 L 222.8 391.1 L 222.8 395.7 L 221.0 395.7 Z M 221.0 391.1 " fill="#ADACAD"></path><path d="M 221.0 384.3 L 222.8 384.3 L 222.8 388.9 L 221.0 388.9 Z M 221.0 384.3 " fill="#ADACAD"></path><path d="M 221.0 377.4 L 222.8 377.4 L 222.8 382.0 L 221.0 382.0 Z M 221.0 377.4 " fill="#ADACAD"></path><path d="M 221.0 370.6 L 222.8 370.6 L 222.8 375.2 L 221.0 375.2 Z M 221.0 370.6 " fill="#ADACAD"></path><path d="M 221.0 363.7 L 222.8 363.7 L 222.8 368.3 L 221.0 368.3 Z M 221.0 363.7 " fill="#ADACAD"></path><path d="M 221.0 356.9 L 222.8 356.9 L 222.8 361.5 L 221.0 361.5 Z M 221.0 356.9 " fill="#ADACAD"></path><path d="M 221.0 350.0 L 222.8 350.0 L 222.8 354.6 L 221.0 354.6 Z M 221.0 350.0 " fill="#ADACAD"></path><path d="M 221.0 343.2 L 222.8 343.2 L 222.8 347.8 L 221.0 347.8 Z M 221.0 343.2 " fill="#ADACAD"></path><path d="M 221.0 336.3 L 222.8 336.3 L 222.8 340.9 L 221.0 340.9 Z M 221.0 336.3 " fill="#ADACAD"></path><path d="M 221.0 329.5 L 222.8 329.5 L 222.8 334.1 L 221.0 334.1 Z M 221.0 329.5 " fill="#ADACAD"></path><path d="M 221.0 322.6 L 222.8 322.6 L 222.8 327.2 L 221.0 327.2 Z M 221.0 322.6 " fill="#ADACAD"></path><path d="M 221.0 315.8 L 222.8 315.8 L 222.8 320.4 L 221.0 320.4 Z M 221.0 315.8 " fill="#ADACAD"></path><path d="M 221.0 308.9 L 222.8 308.9 L 222.8 313.5 L 221.0 313.5 Z M 221.0 308.9 " fill="#ADACAD"></path><path d="M 221.0 302.0 L 222.8 302.0 L 222.8 306.6 L 221.0 306.6 Z M 221.0 302.0 " fill="#ADACAD"></path><path d="M 221.0 295.2 L 222.8 295.2 L 222.8 299.8 L 221.0 299.8 Z M 221.0 295.2 " fill="#ADACAD"></path><path d="M 221.0 288.3 L 222.8 288.3 L 222.8 292.9 L 221.0 292.9 Z M 221.0 288.3 " fill="#ADACAD"></path><path d="M 221.0 281.5 L 222.8 281.5 L 222.8 286.1 L 221.0 286.1 Z M 221.0 281.5 " fill="#ADACAD"></path><path d="M 221.0 274.6 L 222.8 274.6 L 222.8 279.2 L 221.0 279.2 Z M 221.0 274.6 " fill="#ADACAD"></path><path d="M 221.0 267.8 L 222.8 267.8 L 222.8 272.4 L 221.0 272.4 Z M 221.0 267.8 " fill="#ADACAD"></path><path d="M 221.0 260.9 L 222.8 260.9 L 222.8 265.5 L 221.0 265.5 Z M 221.0 260.9 " fill="#ADACAD"></path><path d="M 221.0 254.1 L 222.8 254.1 L 222.8 258.7 L 221.0 258.7 Z M 221.0 254.1 " fill="#ADACAD"></path><path d="M 221.0 247.2 L 222.8 247.2 L 222.8 251.8 L 221.0 251.8 Z M 221.0 247.2 " fill="#ADACAD"></path><path d="M 221.0 240.4 L 222.8 240.4 L 222.8 245.0 L 221.0 245.0 Z M 221.0 240.4 " fill="#ADACAD"></path><path d="M 221.0 233.5 L 222.8 233.5 L 222.8 238.1 L 221.0 238.1 Z M 221.0 233.5 " fill="#ADACAD"></path><path d="M 221.0 226.7 L 222.8 226.7 L 222.8 231.3 L 221.0 231.3 Z M 221.0 226.7 " fill="#ADACAD"></path><path d="M 221.0 219.8 L 222.8 219.8 L 222.8 224.4 L 221.0 224.4 Z M 221.0 219.8 " fill="#ADACAD"></path><path d="M 221.0 212.9 L 222.8 212.9 L 222.8 217.5 L 221.0 217.5 Z M 221.0 212.9 " fill="#ADACAD"></path><path d="M 221.0 206.1 L 222.8 206.1 L 222.8 210.7 L 221.0 210.7 Z M 221.0 206.1 " fill="#ADACAD"></path><path d="M 221.0 199.2 L 222.8 199.2 L 222.8 203.8 L 221.0 203.8 Z M 221.0 199.2 " fill="#ADACAD"></path><path d="M 221.0 192.4 L 222.8 192.4 L 222.8 197.0 L 221.0 197.0 Z M 221.0 192.4 " fill="#ADACAD"></path><path d="M 221.0 185.5 L 222.8 185.5 L 222.8 190.1 L 221.0 190.1 Z M 221.0 185.5 " fill="#ADACAD"></path><path d="M 221.0 178.7 L 222.8 178.7 L 222.8 183.3 L 221.0 183.3 Z M 221.0 178.7 " fill="#ADACAD"></path><path d="M 221.0 171.8 L 222.8 171.8 L 222.8 176.4 L 221.0 176.4 Z M 221.0 171.8 " fill="#ADACAD"></path><path d="M 221.0 165.0 L 222.8 165.0 L 222.8 169.6 L 221.0 169.6 Z M 221.0 165.0 " fill="#ADACAD"></path><path d="M 221.0 158.1 L 222.8 158.1 L 222.8 162.7 L 221.0 162.7 Z M 221.0 158.1 " fill="#ADACAD"></path></g></g></g></g><g><clipPath id="clip0x610000aa7b00"><path d="M 221.0 642.0 L 803.0 642.0 L 803.0 155.0 L 221.0 155.0 Z M 221.0 642.0 "></path></clipPath><g clip-path="url(#clip0x610000aa7b00)"><g><clipPath id="clip0x610000aa7c80"><path d="M 221.0 155.0 L 803.0 155.0 L 803.0 642.0 L 221.0 642.0 Z M 221.0 155.0 "></path></clipPath><g clip-path="url(#clip0x610000aa7c80)"><g opacity="0.20"><g><clipPath id="clip0x610000aa7e60"><path d="M 715.9 325.2 L 717.7 325.2 L 717.7 389.7 L 715.9 389.7 Z M 715.9 325.2 "></path></clipPath><g clip-path="url(#clip0x610000aa7e60)"><path d="M 715.9 383.2 L 717.7 383.2 L 717.7 389.7 L 715.9 389.7 Z M 715.9 383.2 " fill="#424243"></path><path d="M 715.9 373.6 L 717.7 373.6 L 717.7 380.0 L 715.9 380.0 Z M 715.9 373.6 " fill="#424243"></path><path d="M 715.9 363.9 L 717.7 363.9 L 717.7 370.4 L 715.9 370.4 Z M 715.9 363.9 " fill="#424243"></path><path d="M 715.9 354.2 L 717.7 354.2 L 717.7 360.7 L 715.9 360.7 Z M 715.9 354.2 " fill="#424243"></path><path d="M 715.9 344.6 L 717.7 344.6 L 717.7 351.0 L 715.9 351.0 Z M 715.9 344.6 " fill="#424243"></path><path d="M 715.9 334.9 L 717.7 334.9 L 717.7 341.4 L 715.9 341.4 Z M 715.9 334.9 " fill="#424243"></path><path d="M 715.9 325.2 L 717.7 325.2 L 717.7 331.7 L 715.9 331.7 Z M 715.9 325.2 " fill="#424243"></path></g></g></g></g></g></g></g><g><clipPath id="clip0x610000aa8280"><path d="M 221.0 642.0 L 803.0 642.0 L 803.0 155.0 L 221.0 155.0 Z M 221.0 642.0 "></path></clipPath><g clip-path="url(#clip0x610000aa8280)"><g><clipPath id="clip0x610000aa8400"><path d="M 221.0 155.0 L 803.0 155.0 L 803.0 642.0 L 221.0 642.0 Z M 221.0 155.0 "></path></clipPath><g clip-path="url(#clip0x610000aa8400)"><g opacity="0.20"><g><clipPath id="clip0x610000aa85e0"><path d="M 485.9 466.4 L 647.6 466.4 L 647.6 494.9 L 485.9 494.9 Z M 485.9 466.4 "></path></clipPath><g clip-path="url(#clip0x610000aa85e0)"><path d="M 570.5 473.0 C 569.3 472.2 567.3 472.2 566.1 473.0 L 554.8 480.2 C 553.6 481.0 553.6 482.3 554.8 483.1 L 566.1 490.3 C 567.3 491.1 569.3 491.1 570.5 490.3 L 581.7 483.1 C 582.9 482.3 582.9 481.0 581.7 480.2 Z M 647.6 482.3 L 589.7 482.3 C 589.5 482.5 589.3 482.7 589.0 482.9 L 571.7 494.0 C 569.8 495.2 566.7 495.2 564.9 494.0 L 547.5 482.9 C 547.3 482.7 547.0 482.5 546.8 482.3 L 485.9 482.3 L 485.9 478.3 L 547.7 478.3 L 564.9 467.3 C 566.7 466.1 569.8 466.1 571.7 467.3 L 588.8 478.3 L 647.6 478.3 Z M 647.6 482.3 " fill="#424243"></path><path d="M 581.7 483.1 L 570.5 490.3 C 569.3 491.1 567.3 491.1 566.1 490.3 L 554.8 483.1 C 553.6 482.3 553.6 481.0 554.8 480.2 L 566.1 473.0 C 567.3 472.2 569.3 472.2 570.5 473.0 L 581.7 480.2 C 582.9 481.0 582.9 482.3 581.7 483.1 " fill="#FDFDFD"></path></g></g></g><path d="M 541.8 586.9 L 520.8 573.3 C 518.5 571.8 514.7 571.8 512.4 573.3 L 491.3 586.9 C 489.0 588.3 489.0 590.7 491.3 592.2 L 512.4 605.8 C 514.7 607.2 518.5 607.2 520.8 605.8 L 541.8 592.2 C 544.1 590.7 544.1 588.3 541.8 586.9 M 555.5 591.8 L 523.0 612.7 C 519.5 615.0 513.7 615.0 510.2 612.7 L 477.6 591.8 C 474.1 589.5 474.1 585.8 477.6 583.5 L 510.2 562.6 C 513.7 560.4 519.5 560.4 523.0 562.6 L 555.5 583.5 C 559.1 585.8 559.1 589.5 555.5 591.8 " fill="#424243"></path></g></g></g></g><g><clipPath id="clip0x600000aa2ca0"><path d="M 221.0 642.0 L 803.0 642.0 L 803.0 155.0 L 221.0 155.0 Z M 221.0 642.0 "></path></clipPath><g clip-path="url(#clip0x600000aa2ca0)"><g><clipPath id="clip0x600000aa2e20"><path d="M 221.0 155.0 L 803.0 155.0 L 803.0 642.0 L 221.0 642.0 Z M 221.0 155.0 "></path></clipPath><g clip-path="url(#clip0x600000aa2e20)"><g opacity="0.20"><g><clipPath id="clip0x600000aa3000"><path d="M 475.0 297.0 L 488.7 297.0 L 488.7 313.5 L 475.0 313.5 Z M 475.0 297.0 "></path></clipPath><g clip-path="url(#clip0x600000aa3000)"><path d="M 487.0 313.5 L 483.9 305.0 L 475.0 306.4 L 488.7 297.0 Z M 487.0 313.5 " fill="#424243"></path></g></g></g></g></g></g></g><g><clipPath id="clip0x600000aa31e0"><path d="M 221.0 642.0 L 803.0 642.0 L 803.0 155.0 L 221.0 155.0 Z M 221.0 642.0 "></path></clipPath><g clip-path="url(#clip0x600000aa31e0)"><g><clipPath id="clip0x600000aa3360"><path d="M 221.0 155.0 L 803.0 155.0 L 803.0 642.0 L 221.0 642.0 Z M 221.0 155.0 "></path></clipPath><g clip-path="url(#clip0x600000aa3360)"><g opacity="0.20"><g><clipPath id="clip0x600000aa3540"><path d="M 429.0 306.5 L 483.2 306.5 L 483.2 396.0 L 429.0 396.0 Z M 429.0 306.5 "></path></clipPath><g clip-path="url(#clip0x600000aa3540)"><path d="M 431.6 390.7 L 433.1 391.6 L 430.5 396.0 L 429.0 395.1 Z M 431.6 390.7 " fill="#424243"></path><path d="M 435.4 384.2 L 437.0 385.1 L 434.4 389.5 L 432.8 388.6 Z M 435.4 384.2 " fill="#424243"></path><path d="M 439.3 377.8 L 440.8 378.7 L 438.2 383.0 L 436.7 382.1 Z M 439.3 377.8 " fill="#424243"></path><path d="M 443.1 371.3 L 444.7 372.2 L 442.1 376.5 L 440.6 375.6 Z M 443.1 371.3 " fill="#424243"></path><path d="M 447.0 364.8 L 448.5 365.7 L 445.9 370.1 L 444.4 369.1 Z M 447.0 364.8 " fill="#424243"></path><path d="M 450.8 358.3 L 452.4 359.2 L 449.8 363.6 L 448.3 362.7 Z M 450.8 358.3 " fill="#424243"></path><path d="M 454.7 351.8 L 456.2 352.7 L 453.6 357.1 L 452.1 356.2 Z M 454.7 351.8 " fill="#424243"></path><path d="M 458.5 345.4 L 460.1 346.3 L 457.5 350.6 L 456.0 349.7 Z M 458.5 345.4 " fill="#424243"></path><path d="M 462.4 338.9 L 463.9 339.8 L 461.3 344.1 L 459.8 343.2 Z M 462.4 338.9 " fill="#424243"></path><path d="M 466.2 332.4 L 467.8 333.3 L 465.2 337.7 L 463.7 336.8 Z M 466.2 332.4 " fill="#424243"></path><path d="M 470.1 325.9 L 471.6 326.8 L 469.0 331.2 L 467.5 330.3 Z M 470.1 325.9 " fill="#424243"></path><path d="M 473.9 319.4 L 475.5 320.4 L 472.9 324.7 L 471.4 323.8 Z M 473.9 319.4 " fill="#424243"></path><path d="M 477.8 313.0 L 479.3 313.9 L 476.7 318.2 L 475.2 317.3 Z M 477.8 313.0 " fill="#424243"></path><path d="M 481.7 306.5 L 483.2 307.4 L 480.6 311.7 L 479.1 310.8 Z M 481.7 306.5 " fill="#424243"></path></g></g></g></g></g></g></g></g></g></g></g></svg>