<?xml version="1.0" encoding="UTF-8" standalone="no"?><svg xmlns="http://www.w3.org/2000/svg" xmlns:xlink="http://www.w3.org/1999/xlink" clip-rule="evenodd" stroke-miterlimit="10" viewBox="0 0 1024 768"><desc>SVG generated by Keynote</desc><defs></defs><g transform="matrix(1.00, 0.00, -0.00, -1.00, 0.0, 768.0)"><path d="M 0.0 768.0 L 1024.0 768.0 L 1024.0 0.0 L 0.0 0.0 Z M 0.0 768.0 " fill="#FEFFFF"></path><text xml:space="preserve" font-family=".LucidaGrandeUI,.Lucida Grande UI" font-size="64.0" fill="#000000" transform="matrix(1.00, 0.00, -0.00, -1.00, 409.7, 672.5)">E</text><text xml:space="preserve" font-family=".LucidaGrandeUI,.Lucida Grande UI" font-size="64.0" fill="#000000" transform="matrix(1.00, 0.00, -0.00, -1.00, 444.4, 672.5)">m</text><text xml:space="preserve" font-family=".LucidaGrandeUI,.Lucida Grande UI" font-size="64.0" fill="#000000" transform="matrix(1.00, 0.00, -0.00, -1.00, 504.1, 672.5)">p</text><text xml:space="preserve" font-family=".LucidaGrandeUI,.Lucida Grande UI" font-size="64.0" fill="#000000" transform="matrix(1.00, 0.00, -0.00, -1.00, 544.4, 672.5)">e</text><text xml:space="preserve" font-family=".LucidaGrandeUI,.Lucida Grande UI" font-size="64.0" fill="#000000" transform="matrix(1.00, 0.00, -0.00, -1.00, 580.1, 672.5)">z</text><text xml:space="preserve" font-family=".LucidaGrandeUI,.Lucida Grande UI" font-size="64.0" fill="#000000" transform="matrix(1.00, 0.00, -0.00, -1.00, 616.8, 672.5)">a</text><text xml:space="preserve" font-family=".LucidaGrandeUI,.Lucida Grande UI" font-size="64.0" fill="#000000" transform="matrix(1.00, 0.00, -0.00, -1.00, 652.1, 672.5)">r</text><g><clipPath id="clip0x6100006a48c0"><path d="M 335.0 465.7 L 752.6 465.7 L 752.6 578.1 L 335.0 578.1 Z M 335.0 465.7 "></path></clipPath><g clip-path="url(#clip0x6100006a48c0)"><path d="M 397.6 518.4 C 397.6 519.6 397.0 520.7 395.9 521.3 L 368.0 537.4 C 367.5 537.7 367.0 537.8 366.5 537.8 C 366.4 537.8 366.2 537.8 366.2 537.8 C 365.6 537.8 365.1 537.7 364.6 537.4 L 336.7 521.3 C 335.6 520.7 335.0 519.6 335.0 518.4 L 335.1 475.1 C 335.1 474.5 335.4 473.9 335.9 473.6 C 336.4 473.3 337.1 473.3 337.6 473.6 L 354.2 483.1 C 355.2 483.8 355.9 484.9 355.9 486.1 L 355.9 506.3 C 355.9 507.5 356.5 508.6 357.6 509.2 L 364.6 513.3 C 365.2 513.6 365.7 513.7 366.3 513.7 C 366.9 513.7 367.5 513.6 368.0 513.3 L 375.1 509.2 C 376.1 508.6 376.8 507.5 376.8 506.3 L 376.8 486.1 C 376.8 484.9 377.4 483.8 378.4 483.1 L 395.0 473.6 C 395.6 473.3 396.2 473.3 396.7 473.6 C 397.2 473.9 397.6 474.5 397.6 475.1 L 397.6 518.4 " fill="#3F4138"></path><path d="M 544.2 495.8 C 544.2 495.5 544.0 495.3 543.8 495.1 L 534.2 489.6 C 533.9 489.4 533.6 489.4 533.4 489.6 L 523.8 495.1 C 523.5 495.3 523.3 495.5 523.3 495.8 L 523.3 506.9 C 523.3 507.2 523.5 507.5 523.8 507.7 L 533.3 513.2 C 533.6 513.4 533.9 513.4 534.2 513.2 L 543.8 507.7 C 544.0 507.5 544.2 507.2 544.2 506.9 L 544.2 495.8 Z M 546.8 577.9 C 546.3 578.2 545.6 578.2 545.1 577.9 C 544.6 577.6 544.3 577.0 544.3 576.4 L 544.3 533.6 C 544.3 533.1 544.1 532.7 543.7 532.5 C 543.3 532.3 542.9 532.3 542.5 532.5 L 535.5 536.6 C 534.5 537.2 533.2 537.2 532.2 536.6 L 504.2 520.4 C 503.2 519.8 502.5 518.7 502.5 517.5 L 502.5 485.2 C 502.5 484.0 503.2 482.9 504.2 482.3 L 532.2 466.2 C 533.2 465.6 534.5 465.6 535.5 466.2 L 563.5 482.3 C 564.5 482.9 565.2 484.0 565.2 485.2 L 565.2 565.7 C 565.2 566.9 564.5 568.0 563.4 568.6 L 546.8 577.9 " fill="#3F4138"></path></g></g><g><clipPath id="clip0x6100006b66e0"><path d="M 335.0 465.7 L 754.0 465.7 L 754.0 580.0 L 335.0 580.0 Z M 335.0 465.7 "></path></clipPath><g clip-path="url(#clip0x6100006b66e0)"><path d="M 646.8 507.2 C 647.8 507.8 648.5 508.9 648.5 510.1 L 648.5 518.0 C 648.5 519.2 647.8 520.3 646.8 520.9 L 619.0 537.0 C 618.0 537.6 616.7 537.6 615.6 537.0 L 587.7 520.9 C 586.7 520.3 586.0 519.2 586.0 517.9 L 586.0 485.7 C 586.0 484.5 586.7 483.4 587.7 482.8 L 615.5 466.9 C 616.5 466.4 617.8 466.3 618.8 466.9 L 635.6 476.3 C 636.1 476.6 636.5 477.1 636.5 477.7 C 636.5 478.3 636.1 478.9 635.6 479.2 L 607.5 495.3 C 607.0 495.6 606.6 496.2 606.6 496.8 L 606.6 506.9 C 606.6 507.5 607.0 508.1 607.5 508.4 L 616.2 513.4 C 616.8 513.7 617.4 513.7 617.9 513.4 L 626.7 508.4 C 627.2 508.1 627.5 507.5 627.5 506.9 L 627.5 498.9 C 627.5 498.3 627.8 497.8 628.4 497.5 C 628.9 497.2 629.5 497.2 630.1 497.5 L 646.8 507.2 " fill="#3F4138"></path><path d="M 448.4 537.2 C 449.5 537.8 450.8 537.8 451.8 537.2 L 479.8 521.0 C 480.8 520.4 481.5 519.3 481.5 518.1 L 481.5 485.8 C 481.5 484.6 480.8 483.5 479.8 482.9 L 451.8 466.8 C 450.8 466.2 449.5 466.2 448.4 466.8 L 420.5 482.9 C 419.5 483.5 418.8 484.6 418.8 485.8 L 418.8 518.1 C 418.8 519.3 419.5 520.4 420.5 521.0 L 448.4 537.2 " fill="#88BF42"></path><path d="M 701.1 466.3 C 700.1 466.3 699.1 466.6 698.3 467.1 L 689.5 472.3 C 688.2 473.0 688.8 473.3 689.3 473.4 C 691.0 474.0 691.4 474.2 693.2 475.2 C 693.4 475.3 693.7 475.3 693.9 475.2 L 700.6 471.2 C 700.9 471.0 701.2 471.0 701.5 471.2 L 727.8 486.4 C 728.1 486.5 728.2 486.8 728.2 487.1 L 728.2 517.5 C 728.2 517.8 728.1 518.1 727.8 518.2 L 701.5 533.4 C 701.2 533.6 700.9 533.6 700.7 533.4 L 674.3 518.2 C 674.1 518.1 673.9 517.8 673.9 517.5 L 673.9 487.1 C 673.9 486.8 674.1 486.5 674.3 486.4 L 681.5 482.2 C 685.5 480.2 687.9 482.6 687.9 484.9 L 687.9 514.9 C 687.9 515.3 688.2 515.7 688.6 515.7 L 692.0 515.7 C 692.4 515.7 692.7 515.3 692.7 514.9 L 692.7 484.9 C 692.7 479.6 689.9 476.6 684.9 476.6 C 683.4 476.6 682.2 476.6 678.9 478.3 L 671.9 482.3 C 670.2 483.3 669.2 485.1 669.2 487.1 L 669.2 517.5 C 669.2 519.5 670.2 521.3 671.9 522.3 L 698.3 537.5 C 700.0 538.5 702.2 538.5 703.8 537.5 L 730.2 522.3 C 731.9 521.3 732.9 519.5 732.9 517.5 L 732.9 487.1 C 732.9 485.1 731.9 483.3 730.2 482.3 L 703.8 467.1 C 703.0 466.6 702.0 466.3 701.1 466.3 " fill="#88BF42"></path><path d="M 709.2 487.3 C 697.7 487.3 695.2 492.6 695.2 497.0 C 695.2 497.4 695.6 497.8 696.0 497.8 L 699.4 497.8 C 699.8 497.8 700.1 497.5 700.2 497.1 C 700.7 493.7 702.2 491.9 709.2 491.9 C 714.7 491.9 717.1 493.2 717.1 496.1 C 717.1 497.8 716.4 499.1 707.8 499.9 C 700.6 500.6 696.1 502.2 696.1 508.0 C 696.1 513.3 700.6 516.5 708.1 516.5 C 716.6 516.5 720.8 513.5 721.3 507.2 C 721.3 507.0 721.2 506.8 721.1 506.7 C 720.9 506.5 720.7 506.4 720.5 506.4 L 717.1 506.4 C 716.8 506.4 716.4 506.7 716.4 507.0 C 715.5 510.7 713.6 511.8 708.1 511.8 C 702.1 511.8 701.4 509.7 701.4 508.1 C 701.4 506.2 702.2 505.7 710.4 504.6 C 718.5 503.5 722.3 502.0 722.3 496.3 C 722.3 490.6 717.5 487.3 709.2 487.3 " fill="#88BF42"></path><path d="M 745.5 537.5 L 745.5 536.7 L 743.3 536.7 L 743.3 530.9 L 742.4 530.9 L 742.4 536.7 L 740.2 536.7 L 740.2 537.5 L 745.5 537.5 " fill="#88BF42"></path><path d="M 746.3 537.5 L 747.6 537.5 L 749.5 531.9 L 751.4 537.5 L 752.6 537.5 L 752.6 530.9 L 751.8 530.9 L 751.8 534.8 C 751.8 534.9 751.8 535.1 751.8 535.4 C 751.8 535.7 751.8 536.1 751.8 536.4 L 749.9 530.9 L 749.0 530.9 L 747.1 536.4 L 747.1 536.2 C 747.1 536.1 747.1 535.8 747.2 535.5 C 747.2 535.2 747.2 534.9 747.2 534.8 L 747.2 530.9 L 746.3 530.9 L 746.3 537.5 " fill="#88BF42"></path><path d="M 616.9 508.7 C 617.1 508.8 617.4 508.8 617.6 508.7 L 622.9 505.6 C 623.1 505.5 623.3 505.3 623.3 505.1 L 623.3 498.9 C 623.3 498.6 623.1 498.4 622.9 498.3 L 617.6 495.2 C 617.4 495.1 617.1 495.1 616.9 495.2 L 611.6 498.3 C 611.4 498.4 611.2 498.6 611.2 498.9 L 611.2 505.1 C 611.2 505.3 611.4 505.5 611.6 505.6 L 616.9 508.7 " fill="#88BF42"></path></g></g><image xlink:href="DDCDAA6AB8893D49EF5E106F31DC1579.png" width="420.00" height="420.00" transform="matrix(0.43, 0.00, -0.00, -0.43, 455.5, 303.5)"></image><text xml:space="preserve" font-family=".LucidaGrandeUI,.Lucida Grande UI" font-size="64.0" fill="#000000" transform="matrix(1.00, 0.00, -0.00, -1.00, 380.2, 395.5)">n</text><text xml:space="preserve" font-family=".LucidaGrandeUI,.Lucida Grande UI" font-size="64.0" fill="#000000" transform="matrix(1.00, 0.00, -0.00, -1.00, 419.8, 395.5)">o</text><text xml:space="preserve" font-family=".LucidaGrandeUI,.Lucida Grande UI" font-size="64.0" fill="#000000" transform="matrix(1.00, 0.00, -0.00, -1.00, 459.2, 395.5)">d</text><text xml:space="preserve" font-family=".LucidaGrandeUI,.Lucida Grande UI" font-size="64.0" fill="#000000" transform="matrix(1.00, 0.00, -0.00, -1.00, 499.5, 395.5)">e</text><text xml:space="preserve" font-family=".LucidaGrandeUI,.Lucida Grande UI" font-size="64.0" fill="#000000" transform="matrix(1.00, 0.00, -0.00, -1.00, 535.2, 395.5)">j</text><text xml:space="preserve" font-family=".LucidaGrandeUI,.Lucida Grande UI" font-size="64.0" fill="#000000" transform="matrix(1.00, 0.00, -0.00, -1.00, 554.7, 395.5)">s</text><text xml:space="preserve" font-family=".LucidaGrandeUI,.Lucida Grande UI" font-size="64.0" fill="#000000" transform="matrix(1.00, 0.00, -0.00, -1.00, 584.4, 395.5)">.</text><text xml:space="preserve" font-family=".LucidaGrandeUI,.Lucida Grande UI" font-size="64.0" fill="#000000" transform="matrix(1.00, 0.00, -0.00, -1.00, 604.6, 395.5)">o</text><text xml:space="preserve" font-family=".LucidaGrandeUI,.Lucida Grande UI" font-size="64.0" fill="#000000" transform="matrix(1.00, 0.00, -0.00, -1.00, 644.0, 395.5)">r</text><text xml:space="preserve" font-family=".LucidaGrandeUI,.Lucida Grande UI" font-size="64.0" fill="#000000" transform="matrix(1.00, 0.00, -0.00, -1.00, 670.2, 395.5)">g</text><text xml:space="preserve" font-family=".LucidaGrandeUI,.Lucida Grande UI" font-size="64.0" fill="#000000" transform="matrix(1.00, 0.00, -0.00, -1.00, 348.2, 68.5)">g</text><text xml:space="preserve" font-family=".LucidaGrandeUI,.Lucida Grande UI" font-size="64.0" fill="#000000" transform="matrix(1.00, 0.00, -0.00, -1.00, 388.1, 68.5)">i</text><text xml:space="preserve" font-family=".LucidaGrandeUI,.Lucida Grande UI" font-size="64.0" fill="#000000" transform="matrix(1.00, 0.00, -0.00, -1.00, 406.6, 68.5)">t</text><text xml:space="preserve" font-family=".LucidaGrandeUI,.Lucida Grande UI" font-size="64.0" fill="#000000" transform="matrix(1.00, 0.00, -0.00, -1.00, 430.5, 68.5)">-</text><text xml:space="preserve" font-family=".LucidaGrandeUI,.Lucida Grande UI" font-size="64.0" fill="#000000" transform="matrix(1.00, 0.00, -0.00, -1.00, 467.5, 68.5)">s</text><text xml:space="preserve" font-family=".LucidaGrandeUI,.Lucida Grande UI" font-size="64.0" fill="#000000" transform="matrix(1.00, 0.00, -0.00, -1.00, 497.1, 68.5)">c</text><text xml:space="preserve" font-family=".LucidaGrandeUI,.Lucida Grande UI" font-size="64.0" fill="#000000" transform="matrix(1.00, 0.00, -0.00, -1.00, 529.9, 68.5)">m</text><text xml:space="preserve" font-family=".LucidaGrandeUI,.Lucida Grande UI" font-size="64.0" fill="#000000" transform="matrix(1.00, 0.00, -0.00, -1.00, 589.7, 68.5)">.</text><text xml:space="preserve" font-family=".LucidaGrandeUI,.Lucida Grande UI" font-size="64.0" fill="#000000" transform="matrix(1.00, 0.00, -0.00, -1.00, 609.9, 68.5)">c</text><text xml:space="preserve" font-family=".LucidaGrandeUI,.Lucida Grande UI" font-size="64.0" fill="#000000" transform="matrix(1.00, 0.00, -0.00, -1.00, 642.7, 68.5)">o</text><text xml:space="preserve" font-family=".LucidaGrandeUI,.Lucida Grande UI" font-size="64.0" fill="#000000" transform="matrix(1.00, 0.00, -0.00, -1.00, 682.1, 68.5)">m</text></g></svg>