<?xml version="1.0" encoding="UTF-8" standalone="no"?><svg xmlns="http://www.w3.org/2000/svg" xmlns:xlink="http://www.w3.org/1999/xlink" clip-rule="evenodd" stroke-miterlimit="10" viewBox="0 0 1024 768"><desc>SVG generated by Keynote</desc><defs></defs><g transform="matrix(1.00, 0.00, -0.00, -1.00, 0.0, 768.0)"><path d="M 0.0 768.0 L 1024.0 768.0 L 1024.0 0.0 L 0.0 0.0 Z M 0.0 768.0 " fill="#FEFFFF"></path><g><clipPath id="clip0x6000008a1800"><path d="M 444.5 733.8 C 437.4 733.6 429.9 730.8 426.3 726.8 C 424.2 724.5 421.3 718.9 421.3 717.3 C 421.3 716.5 418.4 714.2 417.7 714.4 C 417.5 714.5 416.0 713.1 414.3 711.5 C 410.2 707.2 409.2 706.4 408.6 706.3 C 408.3 706.3 407.5 705.4 406.7 704.2 C 405.6 702.4 405.4 701.4 405.4 697.9 C 405.5 695.6 405.5 693.3 405.5 692.7 C 405.5 692.1 406.3 691.1 407.2 690.4 C 408.2 689.7 409.0 688.8 409.0 688.3 C 409.0 687.9 410.0 686.6 411.3 685.4 C 412.6 684.2 413.7 682.9 413.7 682.6 C 413.7 682.2 414.4 681.2 415.4 680.2 C 416.4 679.3 417.2 678.2 417.2 677.9 C 417.2 677.5 417.7 676.7 418.3 676.1 C 419.0 675.5 419.5 674.8 419.5 674.4 C 419.5 674.0 420.0 673.2 420.7 672.6 C 421.3 672.0 421.9 671.0 421.9 670.3 C 421.9 669.6 422.4 668.4 423.0 667.6 C 423.7 666.8 424.2 665.8 424.2 665.4 C 424.2 665.1 424.8 663.7 425.4 662.5 C 426.2 661.3 426.5 659.8 426.4 658.9 C 426.1 657.3 427.9 653.2 429.4 652.4 C 431.4 651.2 435.3 652.2 437.9 654.5 C 439.4 655.8 441.5 657.3 442.7 657.9 L 444.8 659.0 L 446.4 657.1 C 447.9 655.3 448.3 655.1 451.7 655.1 C 454.9 655.0 456.0 655.3 460.5 657.4 C 463.3 658.8 465.8 659.8 466.0 659.7 C 466.2 659.5 466.9 660.2 467.6 661.2 C 469.0 663.1 472.0 665.0 472.9 664.4 C 473.1 664.3 474.0 665.0 474.8 666.0 C 475.6 667.1 477.4 668.5 478.7 669.1 C 480.0 669.7 481.1 670.5 481.1 670.7 C 481.1 670.9 482.0 671.5 483.0 672.0 C 485.6 673.3 487.5 674.4 488.3 675.2 C 488.8 675.6 489.2 675.6 489.8 675.1 C 490.5 674.6 490.6 674.6 490.3 675.1 C 489.7 676.1 492.8 678.3 494.4 677.9 C 495.2 677.7 496.0 678.0 496.7 678.8 C 497.2 679.4 497.9 679.8 498.2 679.6 C 498.5 679.5 499.2 679.6 499.7 679.9 C 500.9 680.4 504.4 681.7 505.8 682.0 C 506.2 682.1 507.8 682.6 509.3 683.2 C 510.7 683.7 512.8 684.4 514.0 684.8 C 515.1 685.2 518.4 686.7 521.4 688.3 C 524.4 689.8 526.9 690.8 527.1 690.7 C 527.3 690.5 527.5 690.7 527.5 691.3 C 527.5 691.8 528.2 692.7 529.2 693.2 C 531.1 694.3 534.6 698.4 535.3 700.1 C 535.5 700.7 535.9 701.0 536.2 700.8 C 536.6 700.6 536.7 700.8 536.5 701.3 C 536.3 701.7 536.6 702.9 537.0 703.8 C 538.4 706.5 537.5 710.9 535.5 711.2 C 534.8 711.3 534.3 711.7 534.4 712.1 C 534.6 713.2 532.7 714.6 531.6 714.2 C 530.9 714.0 526.9 715.5 524.5 716.9 C 524.0 717.2 522.7 717.9 521.6 718.4 C 520.5 718.9 519.0 719.6 518.2 720.0 C 517.3 720.4 516.7 720.4 516.1 719.9 C 515.7 719.6 515.1 719.5 514.9 719.7 C 514.7 719.9 514.2 720.2 513.9 720.2 C 513.6 720.2 513.3 720.3 513.2 720.4 C 513.2 720.5 511.7 720.7 510.0 720.8 C 507.6 721.1 506.2 721.6 504.2 723.1 C 498.6 727.4 493.0 729.2 485.6 729.2 C 479.9 729.2 477.2 728.7 472.4 726.5 C 470.7 725.7 468.3 725.1 467.0 725.1 C 464.9 725.1 464.1 725.5 461.4 728.0 C 457.6 731.5 453.1 733.4 447.6 733.8 C 446.6 733.9 445.6 733.9 444.5 733.8 Z M 444.5 733.8 "></path></clipPath><g clip-path="url(#clip0x6000008a1800)"><image xlink:href="../../A520F316-A441-44BD-B68C-73538409F169/assets/48237893B986EA9C4808323E56CC22D0.png" width="300.00" height="169.00" transform="matrix(0.59, 0.00, -0.00, -0.59, 372.0, 748.0)"></image></g></g><image xlink:href="../../A520F316-A441-44BD-B68C-73538409F169/assets/4DB89AAE8F1484B74C1D37F6D88FFFD7.png" width="1348.00" height="768.00" transform="matrix(0.72, 0.00, -0.00, -0.72, 23.9, 642.7)"></image><text xml:space="preserve" font-family=".LucidaGrandeUI,.Lucida Grande UI" font-size="64.0" fill="#000000" transform="matrix(1.00, 0.00, -0.00, -1.00, 521.5, 673.5)">W</text><text xml:space="preserve" font-family=".LucidaGrandeUI,.Lucida Grande UI" font-size="64.0" fill="#000000" transform="matrix(1.00, 0.00, -0.00, -1.00, 575.9, 673.5)">e</text><text xml:space="preserve" font-family=".LucidaGrandeUI,.Lucida Grande UI" font-size="64.0" fill="#000000" transform="matrix(1.00, 0.00, -0.00, -1.00, 611.6, 673.5)">b</text><text xml:space="preserve" font-family=".LucidaGrandeUI,.Lucida Grande UI" font-size="64.0" fill="#000000" transform="matrix(1.00, 0.00, -0.00, -1.00, 360.8, 673.5)">I</text></g></svg>